<?xml version="1.0" encoding="utf-8" standalone="no"?>
<!-- Creator: Esri ArcMap 10.5.0.6491 -->
<!DOCTYPE svg PUBLIC "-//W3C//DTD SVG 1.1//EN"  "http://www.w3.org/Graphics/SVG/1.1/DTD/svg11.dtd">
<svg width="792pt" height="612pt" viewBox="0 0 792 612" enable-background="new 0 0 792 612"
	version="1.1" xmlns="http://www.w3.org/2000/svg" xmlns:xlink="http://www.w3.org/1999/xlink" >
	<g id="Capas">
		<g id="DIRIOMO">
			<clipPath id="SVG_CP_1">
				<path d="M3.11961,611.45906L3.11961,2.63974L787.82107,2.63974L787.82107,611.45906L3.11961,611.45906z"/>
			</clipPath>
			<path clip-path="url(#SVG_CP_1)" fill="#D2F7E5" fill-rule="evenodd" stroke="#6E6E6E" stroke-width="0.47994" stroke-miterlimit="10" stroke-linecap="round" stroke-linejoin="round" d="
				M453.30308,66.71335L455.46281,67.91323L457.86251,68.63316L460.2622,68.63316L462.90187,68.63316L465.30157,68.15321L468.90112,68.39318
				L471.06085,67.43328L473.22058,66.2334L475.62028,65.03352L478.49991,63.11371L480.65964,61.43388L482.81937,60.47397L485.21907,60.71395
				L488.57865,60.71395L490.49841,62.63376L492.41817,64.55357L495.05783,65.99342L497.21756,67.91323L499.61726,69.59306L502.25693,71.03292
				L504.8966,71.51287L507.77624,71.99282L510.65588,72.95273L512.8156,74.63256L515.2153,76.31239L517.615,77.99223L520.25467,79.19211
				L523.13431,79.67206L525.77398,78.47218L528.65362,78.2322L531.53325,77.99223L534.41289,77.51227L537.29253,77.51227L540.17217,77.75225
				L543.05181,76.79235L545.93145,76.31239L548.81108,76.07242L551.69072,75.83244L554.57036,75.83244L558.16991,74.87254L561.52949,74.39259
				L565.12904,75.83244L567.7687,77.75225L570.40837,78.95213L573.04804,79.91204L578.08741,81.35189L581.68696,82.79175L580.00717,85.43149
				L579.7672,87.83125L580.24714,92.63077L580.24714,95.75046L580.24714,98.87015L579.7672,101.50988L577.84744,104.62957L576.64759,107.50928
				L575.92768,110.14902L575.20777,113.74866L574.24789,116.86835L573.76795,119.50809L572.80807,121.90785L571.84819,124.54759
				L570.88831,127.4273L569.68846,130.78696L568.00867,135.10653L567.04879,137.98625L565.60898,141.58589L564.88907,144.22563L
				563.68922,146.62539L561.28952,152.86476L559.8497,155.26452L558.64985,157.90426L557.68997,160.544L556.01018,163.66369L554.81033,166.5434
				L553.13054,169.90307L551.21078,173.26273L550.2509,176.6224L549.29102,180.22204L547.61124,184.30163L546.41139,187.18134L544.7316,190.30103
				L542.57187,193.42072L541.37202,196.30043L540.17217,198.7002L538.73235,201.09996L536.09268,205.41953L534.17292,207.57931L
				532.01319,210.93898L529.6135,212.85878L526.73386,215.25855L524.09419,217.41833L520.73461,219.09816L518.33491,221.01797L516.17518,222.45783
				L513.53551,224.37764L510.89585,226.53742L508.01621,228.69721L504.65663,231.09697L500.81711,233.97668L496.73762,239.01618
				L493.13808,242.37584L490.25844,245.25556L488.33868,247.89529L485.45904,250.29505L483.53928,252.45484L481.37955,255.09457
				L478.97985,256.77441L476.58015,258.93419L474.90037,262.05388L472.50067,264.69362L469.861,267.57333L466.74139,270.933L464.58166,273.57273
				L462.42193,276.69242L460.2622,279.33216L458.10248,282.21187L456.66266,284.85161L457.38257,288.21127L459.54229,289.41115L
				462.18196,291.57094L464.58166,294.69063L465.54154,297.09039L466.74139,300.69003L468.66115,304.52965L471.30082,307.16938L
				475.38031,310.76903L478.49991,314.60864L480.89961,316.76843L482.33943,319.40816L483.77925,322.0479L484.9791,325.16759L486.89886,328.76723
				L488.57865,332.60685L489.53853,336.20649L490.73838,338.84623L491.93823,342.92582L491.69826,346.52546L491.69826,349.64515
				L491.21832,352.28489L490.01847,357.08441L489.29856,360.68405L488.81862,365.72355L490.01847,368.60326L490.25844,371.243L490.25844,374.12271
				L491.69826,377.2424L490.01847,380.60207L488.33868,383.48178L486.89886,385.88154L486.89886,389.00123L489.05859,392.12092L
				490.25844,394.2807L491.69826,398.12032L491.93823,402.19991L492.65814,406.03953L493.13808,409.15922L493.37805,412.51888L493.85799,417.07843
				L494.81786,420.43809L496.01771,423.07783L496.01771,426.19752L495.77774,429.55719L491.45829,432.19692L489.53853,434.11673
				L488.33868,436.99644L488.57865,439.87616L489.53853,442.99585L489.53853,446.35551L489.05859,448.99525L486.65889,449.95515
				L483.77925,451.39501L480.1797,452.11494L477.30006,453.31482L474.90037,453.79477L472.2607,453.79477L469.38106,454.5147L467.22133,457.15444
				L465.0616,458.59429L461.70202,459.79417L458.34245,461.474L455.94275,462.67388L453.78302,463.87377L451.14335,465.07365L448.02374,466.27353
				L445.38407,468.19333L443.22434,471.07305L441.78452,472.99286L440.10474,475.39262L437.46507,476.11255L434.58543,477.5524L
				432.18573,478.75228L429.06612,480.19214L421.86703,483.31183L419.7073,481.87197L418.50745,478.75228L415.86778,478.03235L413.46808,479.23223
				L409.14862,481.15204L406.26898,482.83188L403.86929,483.79178L401.70956,485.47161L399.54983,487.15145L397.15013,488.35133
				L394.51046,490.03116L388.99115,493.39082L386.35149,495.07066L382.99191,497.23044L380.83218,498.6703L377.71257,500.35013L
				374.59296,500.11015L371.95329,498.91027L369.07365,498.43032L366.67396,498.6703L363.31438,499.39023L360.43474,500.35013L356.83519,500.83008
				L353.95555,501.78999L350.83595,502.74989L348.43625,503.70979L344.8367,503.94977L342.437,506.82948L341.71709,509.7092L341.23715,513.30884
				L340.51724,516.18855L340.27727,519.78819L339.07742,522.90788L338.59748,525.54762L337.87757,527.94738L336.67772,530.82709
				L335.95781,534.66671L335.2379,537.30645L318.91995,581.46205L239.7299,478.03235L237.09023,446.35551L241.64966,443.95575L243.80938,442.75587
				L245.2492,440.59609L244.76926,437.4764L242.60954,435.31661L240.20984,431.71697L239.48993,429.31721L242.60954,428.35731L245.00923,427.87735
				L247.16896,425.71757L249.80863,424.03774L252.20833,422.83786L255.08797,419.71817L256.28782,417.07843L258.20758,413.71876
				L259.88737,411.55898L262.52703,408.91924L264.68676,407.47939L268.04634,405.3196L269.72613,403.39979L272.3658,401.00003L271.64589,397.88034
				L270.68601,395.48058L269.72613,393.08082L270.44604,390.68106L272.3658,388.04132L271.64589,385.16161L270.68601,382.2819L266.12658,371.48297
				L262.52703,366.2035L261.08722,364.04372L259.6474,362.12391L258.68752,359.72415L257.48767,357.56436L256.52779,355.1646L255.80788,353.00482
				L255.08797,350.60506L254.12809,348.20529L253.40818,345.80553L252.68827,343.40577L251.96836,341.00601L250.28857,337.88632
				L246.68902,337.40637L244.28932,337.88632L241.88963,337.64635L239.48993,336.68644L237.57017,335.00661L235.89038,333.0868L
				233.01074,331.16699L229.41119,330.44706L227.25146,331.88692L223.89189,330.44706L221.73216,329.24718L219.57243,327.80733L
				217.65267,326.60745L215.97288,324.68764L214.77303,322.52785L213.09324,320.36807L211.41345,318.68824L209.49369,317.0084L219.57243,263.49374
				L202.77454,230.61701L205.17424,229.41713L207.33396,228.21725L209.49369,227.01737L211.65342,225.57752L213.57318,223.89768
				L215.73291,222.6978L217.65267,221.01797L219.8124,219.81809L221.97213,218.61821L224.13186,217.17835L226.29158,215.97847L228.21134,214.53862
				L230.1311,211.41893L230.85101,209.01917L231.57092,206.61941L232.77077,204.45962L234.21059,202.29984L235.89038,200.38003L
				237.57017,198.7002L239.48993,197.02036L241.64966,195.82048L244.28932,195.34053L246.68902,195.10055L249.32869,194.86058L251.48842,194.14065
				L253.40818,192.46082L255.80788,191.74089L257.96761,190.06106L259.40743,188.14125L261.08722,186.46142L262.52703,184.30163
				L263.48691,181.90187L264.92673,179.98206L266.60652,177.82228L267.80637,175.90247L269.24619,173.74268L270.44604,171.5829L
				271.64589,169.18314L272.3658,166.78338L273.08571,164.38362L273.56565,161.98386L273.80562,159.58409L273.80562,156.94436L274.04559,154.5446
				L274.04559,151.90486L274.04559,149.5051L274.28556,146.86536L274.28556,144.4656L274.28556,141.82586L274.28556,139.4261L276.44529,136.78637
				L278.84499,136.54639L281.00471,135.10653L283.40441,134.86656L286.04408,135.34651L288.44378,136.06644L291.56339,136.06644
				L293.96309,137.26632L296.36279,137.98625L298.76248,138.70618L301.16218,139.4261L304.28179,138.94615L304.52176,136.54639L
				306.20155,133.66668L308.12131,132.22682L310.04107,130.54699L312.68074,128.3872L314.36053,126.4674L316.04031,124.54759L317.7201,122.86775
				L319.39989,120.94795L321.07968,119.02814L322.27953,116.86835L323.23941,114.46859L324.19929,112.06883L324.9192,109.90905L
				325.87908,107.50928L327.55887,105.58948L329.47863,104.14962L332.59824,102.22981L333.07817,99.83005L333.31814,97.19031L333.55811,94.79055
				L333.79808,92.15082L335.47787,89.2711L337.87757,88.07122L340.0373,87.11132L342.437,85.91144L344.59673,85.19151L346.99643,84.47158
				L350.11604,82.55177L352.51573,81.83184L354.67546,80.87194L357.31513,80.39199L359.71483,79.67206L361.87456,78.47218L363.79432,77.03232
				L365.47411,75.11251L367.39387,73.43268L369.31362,71.75285L371.23338,70.31299L372.91317,68.39318L375.31287,67.91323L376.75269,65.99342
				L379.15239,63.35369L381.55209,64.31359L383.71182,65.75345L386.11152,66.2334L388.51121,66.71335L390.67094,67.91323L393.31061,67.91323
				L396.43022,69.11311L398.82992,68.39318L400.74968,66.71335L402.42947,65.03352L404.10926,63.11371L405.3091,60.95393L406.74892,58.79414
				L408.90865,57.59426L411.06838,56.1544L412.98814,54.71455L414.66793,52.79474L415.86778,50.63495L417.78754,48.95512L419.7073,47.27529
				L421.62706,45.59546L422.107,43.1957L422.34697,40.55596L422.58694,38.1562L424.26672,33.59665L426.42645,35.27648L427.14636,37.67625
				L427.6263,40.07601L428.82615,42.23579L431.22585,44.63555L433.38558,45.83543L436.50519,47.75524L438.66492,49.1951L439.86477,51.35488
				L440.82464,53.51467L441.78452,55.91443L442.98437,58.07421L444.18422,60.234L445.86401,62.15381L448.98362,64.07361L451.14335,65.27349
				L453.30308,66.71335z"/>
		</g>
		<g id="Other">
			<clipPath id="SVG_CP_2">
				<path d="M0,611.93901L0,0L791.90056,0L791.90056,611.93901L0,611.93901z"/>
			</clipPath>
			<path clip-path="url(#SVG_CP_2)" fill="none" stroke="#000000" stroke-width="0.95988" stroke-miterlimit="10" stroke-linecap="round" stroke-linejoin="round" d="
				M3.11961,611.45906L3.11961,2.63974L787.82107,2.63974L787.82107,611.45906L3.11961,611.45906z"/>
		</g>
	</g>
</svg>
