<?xml version="1.0" encoding="utf-8" standalone="no"?>
<!-- Creator: Esri ArcMap 10.5.0.6491 -->
<!DOCTYPE svg PUBLIC "-//W3C//DTD SVG 1.1//EN"  "http://www.w3.org/Graphics/SVG/1.1/DTD/svg11.dtd">
<svg width="792pt" height="612pt" viewBox="0 0 792 612" enable-background="new 0 0 792 612"
	version="1.1" xmlns="http://www.w3.org/2000/svg" xmlns:xlink="http://www.w3.org/1999/xlink" >
	<g id="Capas">
		<g id="DIRIÃ">
			<clipPath id="SVG_CP_1">
				<path d="M3.11961,611.45906L3.11961,2.63974L787.82107,2.63974L787.82107,611.45906L3.11961,611.45906z"/>
			</clipPath>
			<path clip-path="url(#SVG_CP_1)" fill="#D3BAF5" fill-rule="evenodd" stroke="#6E6E6E" stroke-width="0.47994" stroke-miterlimit="10" stroke-linecap="round" stroke-linejoin="round" d="
				M598.72482,47.03531L557.45,98.87015L554.81033,98.87015L552.6506,98.63017L550.73084,99.59007L548.81108,100.78995L546.41139,102.70976
				L544.49163,103.66967L542.57187,104.62957L540.65211,105.58948L537.5325,105.3495L535.37277,105.58948L533.21304,105.82945L531.05331,105.82945
				L529.13356,105.10952L527.2138,104.14962L525.29404,102.94974L523.37428,101.98983L520.97458,100.07003L519.29479,98.63017L518.33491,96.71036
				L517.13506,94.79055L516.41515,92.87074L515.69524,90.71096L514.49539,89.03113L512.8156,87.83125L510.17594,86.15141L508.25618,85.19151
				L506.09645,83.03172L505.13657,81.11192L504.65663,78.95213L504.17669,77.03232L502.25693,75.59247L500.81711,79.43208L500.57714,81.59187
				L500.33717,83.75165L499.85723,85.91144L498.41741,87.35129L496.73762,88.79115L495.05783,90.23101L493.85799,92.15082L492.41817,93.59067
				L490.73838,95.03053L489.05859,96.23041L487.13883,97.19031L485.93898,99.11012L484.9791,101.02993L483.53928,102.46979L482.09946,104.14962
				L480.41967,105.58948L478.25994,106.06943L475.62028,105.10952L473.46055,105.10952L471.54079,104.14962L469.38106,103.66967
				L467.4613,103.18972L465.54154,101.98983L463.62178,101.26991L461.46205,103.42969L460.2622,105.10952L458.10248,105.3495L456.66266,107.02933
				L455.22284,108.46919L453.54305,109.90905L451.86326,111.3489L450.42344,112.78876L448.74365,114.22862L446.82389,115.18852L
				444.66416,115.66847L442.50443,116.14842L440.58468,117.10833L438.66492,117.82826L436.02525,119.26811L433.86552,119.98804L
				431.94576,120.46799L430.026,121.4279L428.10624,122.3878L426.18648,123.34771L424.74666,125.98744L424.50669,128.14723L424.26672,130.30701
				L424.02675,132.4668L423.54681,134.62658L420.90715,136.06644L419.22736,137.26632L417.78754,138.94615L417.06763,141.10594L
				416.34772,143.02574L415.62781,145.18553L414.66793,147.10534L413.70805,149.02515L412.26823,150.465L410.82841,152.14484L409.38859,153.82467
				L407.94877,155.26452L406.50895,156.94436L404.34923,158.86417L402.66944,160.30402L400.74968,161.5039L399.30986,163.90366L
				399.30986,166.06345L396.43022,166.5434L394.51046,165.82347L392.35073,165.10354L390.43097,164.62359L388.51121,163.66369L385.63158,163.42371
				L383.47185,162.94376L381.31212,162.46381L379.39236,162.94376L377.4726,163.90366L375.31287,164.14364L373.63308,166.5434L373.63308,168.70319
				L373.39311,170.86297L373.39311,173.02275L373.39311,175.18254L373.39311,177.34232L373.39311,179.50211L373.15314,181.66189
				L372.91317,183.82168L372.91317,185.98146L372.43323,187.90127L371.95329,190.06106L371.23338,192.22084L370.2735,194.14065L
				369.07365,195.82048L368.11378,197.74029L366.91393,199.42012L365.47411,201.33993L364.27426,203.01977L363.31438,204.93957L
				362.3545,206.85938L360.67471,208.29924L359.47486,209.97907L357.5551,211.41893L355.63534,212.13886L353.95555,213.33874L352.03579,214.05866
				L349.87607,214.29864L347.71634,214.53862L345.55661,215.01857L343.63685,215.97847L341.95706,217.41833L340.51724,218.85819
				L339.07742,220.53802L337.87757,222.21785L336.91769,224.13766L336.19778,226.29744L335.47787,228.21725L334.03805,230.85699
				L332.35827,232.29685L330.43851,233.25675L328.51875,234.45663L326.59899,235.41654L324.9192,236.61642L323.23941,238.05627L
				321.31965,239.01618L319.63986,240.45603L317.96007,241.65591L316.04031,242.85579L314.12056,243.8157L312.2008,244.7756L326.59899,273.09278
				L317.7201,318.92821L319.39989,320.36807L321.07968,322.0479L322.27953,323.72773L323.23941,325.64754L324.67923,327.0874L326.59899,328.28728
				L328.27878,329.48716L330.19854,330.44706L333.07817,331.64694L334.99793,330.68704L338.11754,331.16699L340.51724,332.84683
				L341.95706,334.52666L343.63685,335.96651L345.55661,336.68644L347.71634,336.92642L349.87607,336.68644L352.7557,336.68644L
				354.43549,339.56616L354.91543,341.48596L355.63534,343.64575L356.35525,345.56556L357.07516,347.72534L357.5551,349.88513L358.27501,351.80494
				L359.23489,353.72474L359.9548,355.64455L360.91468,357.56436L362.11453,359.48417L363.31438,361.164L366.43399,365.72355L370.51347,375.08262
				L371.23338,377.48238L371.71332,379.88214L370.2735,382.2819L369.55359,384.20171L370.2735,386.36149L371.23338,388.52128L371.71332,391.16101
				L369.55359,393.3208L368.11378,394.76065L365.23414,396.68046L363.31438,397.88034L361.15465,400.04013L359.71483,402.19991L
				358.03504,404.83965L357.07516,407.23941L354.43549,409.87915L352.51573,410.83905L350.11604,412.27891L348.43625,414.19872L
				346.27652,414.43869L343.63685,415.3986L344.35676,417.55838L346.27652,420.43809L348.19628,422.3579L348.67622,424.99764L347.47637,426.91745
				L345.55661,427.87735L341.47712,430.03714L323.23941,441.31601L321.79959,442.99585L320.59974,445.15563L319.15992,447.07544
				L317.00019,448.99525L315.56037,450.91506L313.64062,453.07484L312.2008,454.99465L310.04107,457.15444L308.36128,458.35432L
				306.20155,460.03415L304.28179,461.474L302.12206,462.19393L299.48239,463.15384L296.60276,463.39381L294.92297,461.95396L292.76324,461.474
				L289.64363,460.27412L287.72387,459.31422L285.0842,458.59429L282.6845,457.39441L280.04483,456.19453L277.88511,455.23463L275.24544,454.99465
				L273.32568,454.03475L217.17273,452.83487L254.12809,397.64037L243.80938,371.48297L242.36957,369.08321L241.40969,366.92343
				L240.44981,364.76364L239.48993,362.36388L238.29008,359.96412L238.53005,357.56436L238.77002,355.1646L239.7299,352.76484L240.20984,350.36508
				L239.7299,347.96532L238.53005,345.80553L237.57017,343.40577L234.21059,288.69123L247.16896,284.85161L258.68752,268.77321L
				252.4483,259.41414L273.80562,255.57453L282.92447,245.25556L280.76474,243.57572L279.32492,241.89589L277.88511,240.21606L276.68526,238.53623
				L275.24544,236.85639L274.28556,234.93658L273.08571,233.25675L272.12583,231.33694L271.16595,229.41713L270.20607,227.49733
				L269.00622,225.57752L267.80637,223.89768L266.12658,222.21785L264.68676,221.01797L263.00697,219.57811L261.32718,218.13826
				L260.12734,216.21845L259.40743,214.29864L258.44755,212.37883L257.72764,210.21905L257.00773,208.29924L255.80788,206.61941
				L253.88812,205.41953L252.4483,203.97967L250.76851,202.29984L249.56866,200.62L248.12884,199.18015L246.44905,195.58051L250.28857,195.10055
				L252.4483,195.34053L254.60803,194.86058L257.2477,193.18075L259.40743,192.70079L261.32718,191.98087L264.44679,191.74089L266.12658,192.94077
				L268.28631,193.6607L270.20607,194.38063L272.84574,194.14065L289.16369,180.70199L291.56339,179.26213L294.683,179.02216L296.60276,180.22204
				L298.52251,180.94197L301.16218,182.6218L303.32191,182.6218L305.48164,182.38182L307.64137,181.90187L309.8011,181.42192L311.72086,180.46201
				L313.64062,179.50211L315.56037,178.5422L317.48013,177.5823L320.1198,175.90247L321.79959,174.46261L323.47938,173.26273L334.27802,151.90486
				L355.39537,138.22622L353.47561,134.62658L353.23564,132.4668L353.23564,130.30701L352.51573,128.3872L352.27576,126.22742L351.79582,124.06763
				L350.83595,122.14783L350.11604,119.98804L348.91619,118.30821L347.71634,116.3884L346.27652,114.70857L344.35676,111.3489L393.07064,99.11012
				L411.54832,66.95333L413.70805,70.07302L417.78754,74.15261L424.02675,77.2723L431.46582,77.75225L438.66492,76.07242L448.26371,76.07242
				L454.26296,78.2322L459.78226,80.63196L466.50142,77.75225L473.46055,75.11251L479.69976,71.03292L483.77925,68.15321L489.29856,62.87373
				L497.93747,60.47397L502.97684,59.99402L509.93597,61.91383L512.57563,58.55416L517.13506,59.03412L520.73461,60.95393L525.29404,59.03412
				L534.41289,59.03412L540.41214,61.43388L545.45151,61.43388L550.01093,60.95393L557.21003,59.03412L558.16991,56.87433L563.68922,53.99462
				L574.24789,54.95452L578.80732,53.99462L580.96705,49.43507L583.36675,46.31538L589.60596,41.75584L591.52572,34.55656L600.64458,45.35548
				L598.72482,47.03531z"/>
		</g>
		<g id="Other">
			<clipPath id="SVG_CP_2">
				<path d="M0,611.93901L0,0L791.90056,0L791.90056,611.93901L0,611.93901z"/>
			</clipPath>
			<path clip-path="url(#SVG_CP_2)" fill="none" stroke="#000000" stroke-width="0.95988" stroke-miterlimit="10" stroke-linecap="round" stroke-linejoin="round" d="
				M3.11961,611.45906L3.11961,2.63974L787.82107,2.63974L787.82107,611.45906L3.11961,611.45906z"/>
		</g>
	</g>
</svg>
