<?xml version="1.0" encoding="utf-8" standalone="no"?>
<!-- Creator: Esri ArcMap 10.5.0.6491 -->
<!DOCTYPE svg PUBLIC "-//W3C//DTD SVG 1.1//EN"  "http://www.w3.org/Graphics/SVG/1.1/DTD/svg11.dtd">
<svg width="500" height="500" viewBox="0 0 792 612" enable-background="new 0 0 792 612"
	version="1.1" xmlns="http://www.w3.org/2000/svg" xmlns:xlink="http://www.w3.org/1999/xlink" >
	<g id="Capas">
		<g id="GRANADA">
			<clipPath id="SVG_CP_1">
				<path d="M3.11961,611.45906L3.11961,2.63974L787.82107,2.63974L787.82107,611.45906L3.11961,611.45906z"/>
			</clipPath>
			<path clip-path="url(#SVG_CP_1)" fill="#CAD0FA" fill-rule="evenodd" stroke="none" d="M456.66266,311.72893L455.94275,311.72893
				L456.18272,312.20888L456.66266,311.72893L457.1426,312.68883L456.90263,313.40876L458.10248,313.16879L458.10248,314.12869L
				458.34245,315.32857L458.82238,315.80852L459.78226,316.0485L459.06235,316.76843L458.10248,316.76843L457.38257,317.24838L458.10248,317.96831
				L458.58242,318.68824L458.10248,319.16819L458.58242,320.36807L457.62254,320.84802L456.42269,321.088L455.46281,321.088L454.50293,320.36807
				L453.78302,318.68824L453.06311,318.68824L452.82314,317.72833L453.54305,317.0084L454.7429,317.0084L454.7429,316.0485L453.78302,315.32857
				L452.82314,315.32857L451.38332,315.0886L449.22359,314.84862L448.74365,313.64874L447.78377,312.92881L448.74365,312.20888L
				449.22359,313.40876L449.9435,312.92881L450.18347,312.20888L449.70353,310.76903L448.98362,311.24898L448.50368,311.24898L448.98362,310.28907
				L447.78377,310.28907L446.82389,310.52905L446.10398,310.28907L445.1441,309.08919L444.42419,308.36926L443.46431,308.12929L
				442.7444,308.60924L442.7444,309.56915L441.78452,308.84922L441.30458,306.92941L440.10474,306.44946L438.90489,306.44946L438.18498,306.20948
				L436.74516,305.24958L436.02525,304.52965L435.06537,304.28967L435.06537,305.24958L433.62555,305.24958L433.38558,305.48955
				L432.66567,305.72953L431.46582,305.9695L430.50594,306.44946L429.78603,307.40936L429.78603,309.32917L429.30609,310.28907L
				429.06612,311.24898L429.06612,311.96891L430.026,312.68883L430.26597,313.64874L429.54606,314.36867L429.54606,315.56855L429.30609,317.0084
				L429.06612,318.68824L429.54606,320.36807L431.22585,322.52785L431.94576,323.24778L432.90564,323.72773L434.58543,324.68764
				L434.34546,326.12749L433.86552,327.0874L434.34546,328.28728L435.06537,328.76723L435.06537,329.72714L435.30534,331.16699L
				436.74516,330.68704L436.98513,329.72714L436.50519,329.24718L436.26522,328.52726L436.98513,328.76723L438.66492,329.48716L
				438.42495,330.92702L438.66492,331.88692L439.6248,332.60685L439.38483,334.52666L439.6248,336.20649L440.58468,336.92642L441.78452,336.68644
				L442.02449,335.96651L442.7444,336.92642L443.22434,337.88632L442.98437,338.84623L443.46431,339.80613L444.66416,338.84623L
				444.66416,340.04611L445.38407,341.96592L447.78377,343.64575L449.46356,345.08561L449.9435,345.80553L450.18347,347.00541L450.66341,348.92522
				L450.42344,350.60506L450.18347,353.72474L451.62329,357.08441L452.10323,357.80434L453.54305,359.96412L454.02299,361.64395
				L455.46281,362.60386L454.7429,365.48357L454.7429,366.92343L455.70278,370.04312L456.66266,371.00302L457.86251,372.2029L460.50217,372.92283
				L461.94199,374.36269L462.18196,376.52247L462.42193,378.92223L462.18196,381.56197L461.22208,383.48178L460.98211,385.64156
				L460.98211,387.08142L461.94199,388.04132L462.42193,388.52128L464.10172,388.2813L464.82163,389.00123L464.82163,390.20111L
				464.10172,390.68106L461.94199,389.72116L461.22208,388.76125L460.50217,389.72116L459.54229,390.68106L458.58242,391.16101L
				459.06235,392.36089L460.02223,392.84085L458.34245,393.3208L456.90263,392.84085L455.94275,394.04073L455.94275,396.92044L456.66266,399.80015
				L458.10248,401.00003L459.78226,401.47998L460.50217,402.91984L460.74214,404.11972L462.42193,404.83965L462.6619,406.03953L
				463.38181,406.51948L463.62178,407.71936L463.14184,409.39919L463.86175,410.83905L464.34169,411.79896L463.86175,412.51888L
				463.86175,413.95874L463.62178,416.59848L464.34169,417.31841L464.10172,418.03833L463.14184,417.79836L462.42193,418.03833L
				462.18196,418.27831L462.42193,418.99824L462.42193,420.67807L462.42193,422.3579L460.98211,423.07783L460.02223,424.75766L458.34245,425.71757
				L458.82238,426.91745L458.58242,427.63738L457.62254,427.15742L457.38257,426.67747L456.90263,426.91745L456.42269,426.67747
				L455.94275,426.19752L455.70278,425.95754L455.70278,425.47759L455.46281,424.75766L454.98287,424.75766L454.50293,424.75766
				L454.26296,424.27771L453.78302,424.03774L453.30308,424.03774L453.30308,423.55778L453.54305,423.07783L453.30308,422.83786
				L452.82314,422.3579L452.58317,422.3579L452.10323,422.3579L451.62329,422.3579L451.14335,422.3579L450.66341,422.3579L450.18347,422.3579
				L449.70353,422.11793L449.22359,422.3579L448.74365,422.59788L448.50368,422.83786L448.02374,423.07783L447.78377,423.31781L
				447.30383,423.55778L446.82389,423.79776L446.58392,424.03774L446.10398,424.27771L445.62404,424.51769L445.1441,424.75766L444.90413,424.99764
				L444.42419,425.23762L444.18422,425.47759L443.70428,425.23762L443.70428,424.99764L443.22434,424.75766L442.7444,424.75766L
				442.26446,424.99764L441.78452,424.99764L441.54455,425.23762L441.06461,425.47759L440.82464,425.71757L440.34471,425.95754L
				439.86477,426.19752L439.6248,426.19752L439.14486,426.4375L438.66492,426.67747L438.42495,426.91745L437.94501,427.3974L437.70504,427.3974
				L437.2251,427.63738L436.74516,427.87735L436.26522,427.63738L435.78528,427.63738L435.78528,427.15742L435.30534,427.3974L435.30534,426.91745
				L435.30534,426.4375L435.06537,425.95754L434.8254,425.71757L434.58543,425.23762L434.34546,424.75766L434.10549,424.51769L433.86552,424.03774
				L433.38558,423.79776L433.14561,423.31781L432.90564,422.83786L432.66567,422.59788L432.66567,422.11793L432.4257,421.63798L
				432.4257,421.15802L432.18573,420.67807L432.4257,420.19812L432.4257,419.71817L432.4257,419.23821L432.4257,418.75826L432.66567,418.27831
				L432.66567,418.03833L432.90564,417.55838L433.38558,417.31841L433.62555,416.83845L434.10549,416.59848L434.34546,416.3585L
				434.8254,416.11853L435.06537,415.63857L435.06537,415.15862L435.06537,414.67867L434.8254,414.19872L434.8254,413.71876L434.58543,413.23881
				L434.34546,412.99884L433.86552,412.99884L433.38558,412.51888L432.90564,412.51888L432.66567,412.51888L432.18573,412.27891
				L431.70579,412.27891L431.22585,412.51888L430.74591,412.51888L430.26597,412.27891L430.026,412.03893L429.54606,411.79896L429.06612,411.79896
				L428.58618,411.79896L428.10624,411.79896L427.6263,412.03893L427.14636,412.27891L426.90639,412.51888L426.42645,412.75886L
				425.94651,412.75886L425.46657,412.51888L425.2266,412.27891L424.98663,412.03893L424.50669,412.03893L424.50669,411.55898L424.50669,411.07903
				L424.02675,411.07903L423.54681,410.83905L423.06687,410.83905L422.58694,410.83905L422.34697,410.83905L421.86703,410.83905
				L421.38709,410.83905L420.90715,411.07903L420.42721,410.83905L419.94727,410.83905L419.46733,410.83905L418.98739,410.83905
				L418.74742,411.07903L418.26748,411.07903L417.78754,411.319L416.82766,411.319L414.66793,405.3196L414.42796,404.83965L414.18799,404.3597
				L414.18799,403.87975L413.70805,403.39979L413.70805,402.91984L412.98814,402.91984L412.26823,402.91984L411.30835,403.15982
				L410.82841,403.15982L409.86853,402.91984L409.38859,402.67986L408.90865,402.43989L408.42871,402.19991L407.94877,401.95994
				L406.98889,401.47998L406.26898,401.24001L405.06913,400.76006L404.10926,400.52008L403.38935,400.2801L402.42947,400.2801L401.70956,400.52008
				L400.74968,401.00003L400.26974,401.71996L400.02977,401.95994L399.54983,402.43989L398.82992,403.15982L398.58995,403.63977
				L398.34998,403.87975L397.87004,404.11972L397.3901,404.3597L397.15013,404.59967L396.67019,404.83965L396.19025,404.83965L395.47034,404.83965
				L394.9904,404.59967L394.51046,404.59967L394.27049,404.83965L393.79055,405.07963L393.07064,405.07963L392.5907,405.07963L392.35073,404.83965
				L392.11076,404.3597L392.11076,403.87975L391.87079,403.63977L391.63082,403.39979L391.15088,403.15982L390.43097,403.15982L
				389.95103,403.15982L389.47109,403.39979L389.23112,403.87975L388.75118,404.11972L388.27124,404.3597L387.7913,405.07963L387.31136,405.55958
				L387.07139,406.03953L386.83142,406.51948L386.35149,407.23941L385.87155,407.71936L385.63158,407.95934L385.15164,408.43929
				L384.91167,408.67927L384.6717,409.15922L384.19176,409.63917L383.71182,409.87915L383.23188,410.11912L382.75194,410.11912L
				382.272,410.3591L381.79206,410.3591L380.83218,410.3591L380.35224,410.59908L379.8723,410.59908L379.39236,410.3591L378.91242,409.87915
				L378.43248,409.63917L377.95254,409.39919L377.4726,409.15922L377.23263,408.67927L376.99266,408.43929L376.51272,407.95934L
				376.27275,407.47939L376.03278,406.99943L375.79281,406.51948L375.31287,406.27951L375.0729,406.03953L374.59296,405.55958L374.11302,405.3196
				L373.63308,404.83965L373.39311,404.59967L372.91317,404.3597L372.19326,404.3597L371.71332,404.3597L371.23338,404.11972L370.51347,404.11972
				L370.03353,403.87975L369.55359,403.87975L368.83369,403.39979L368.59372,402.91984L368.11378,402.43989L367.87381,401.95994
				L367.39387,401.47998L367.1539,401.00003L366.67396,400.52008L366.19402,399.80015L365.95405,399.56018L365.23414,398.84025L
				364.7542,398.60027L364.03429,398.3603L363.55435,397.88034L363.31438,397.64037L362.59447,397.40039L362.11453,397.40039L361.63459,397.64037
				L361.15465,397.64037L360.43474,397.88034L359.9548,397.88034L359.47486,397.88034L358.99492,397.88034L358.51498,397.64037L
				358.27501,397.64037L358.27501,396.92044L358.27501,396.44049L358.27501,395.96053L358.03504,395.48058L357.79507,395.00063L
				357.79507,394.76065L357.79507,394.2807L357.79507,393.80075L358.03504,393.3208L358.03504,392.84085L358.27501,392.36089L358.51498,391.88094
				L358.51498,391.64096L358.75495,391.16101L358.99492,390.68106L359.23489,390.20111L359.23489,389.72116L359.23489,389.2412L
				358.99492,389.00123L358.99492,388.52128L358.99492,388.04132L359.23489,387.56137L359.47486,387.08142L359.71483,386.84144L
				359.9548,386.36149L360.19477,385.88154L360.43474,385.64156L360.91468,385.40159L361.15465,384.92163L360.91468,384.44168L360.91468,383.96173
				L361.15465,383.48178L361.15465,383.00183L361.15465,382.52187L361.15465,382.04192L361.15465,381.56197L361.15465,381.08202
				L360.91468,380.60207L360.91468,380.12211L360.67471,379.88214L360.91468,379.40218L361.15465,378.92223L361.39462,378.44228
				L361.39462,378.2023L361.39462,377.72235L361.39462,377.2424L361.39462,376.76245L361.39462,376.2825L361.39462,375.80254L361.39462,375.32259
				L361.39462,374.84264L361.63459,374.36269L361.87456,373.88273L361.87456,373.40278L362.3545,373.16281L362.59447,372.92283L
				363.07441,372.68285L363.55435,372.68285L364.03429,372.44288L364.51423,372.44288L362.3545,369.80314L362.11453,369.32319L362.11453,368.84324
				L362.11453,368.36329L361.87456,367.88333L361.87456,367.40338L361.63459,366.68345L361.63459,365.96352L361.63459,365.48357
				L361.39462,365.00362L361.39462,364.28369L361.15465,363.56376L361.15465,363.32379L360.67471,362.84384L360.67471,362.36388
				L360.91468,361.88393L361.15465,361.40398L361.39462,360.92403L361.15465,360.44407L361.15465,359.96412L361.15465,359.48417
				L360.91468,359.00422L361.15465,358.28429L361.15465,357.56436L361.39462,356.84443L361.39462,356.36448L361.39462,355.88453
				L361.39462,355.40458L361.39462,354.68465L361.15465,354.2047L360.91468,353.72474L360.67471,353.00482L360.43474,352.52486L
				360.19477,352.04491L359.9548,351.56496L359.71483,351.08501L359.23489,350.84503L358.75495,350.1251L358.03504,349.40517L357.79507,349.1652
				L357.31513,348.44527L357.31513,347.96532L357.07516,347.48537L356.59522,347.00541L356.35525,346.76544L355.87531,346.52546
				L355.87531,345.80553L356.11528,345.56556L356.35525,345.08561L356.59522,344.60565L357.07516,344.1257L357.31513,343.64575L
				358.03504,343.1658L358.27501,342.68584L358.75495,342.20589L358.99492,341.72594L359.47486,341.48596L359.71483,341.00601L360.19477,340.76604
				L360.43474,340.28608L360.91468,339.80613L361.15465,339.56616L361.63459,339.0862L362.3545,338.60625L362.83444,337.64635L363.55435,337.16639
				L364.03429,336.92642L364.51423,336.44647L364.99417,336.20649L365.47411,335.72654L365.71408,335.48656L366.19402,335.24659
				L366.67396,335.00661L367.1539,334.76663L367.63384,334.28668L368.11378,334.04671L368.35375,333.32678L368.59372,333.0868L369.07365,332.36687
				L369.31362,331.88692L369.55359,331.64694L369.79356,331.16699L370.03353,330.68704L370.2735,330.20709L370.51347,329.72714L
				370.75344,329.00721L370.99341,328.28728L370.99341,327.80733L371.47335,327.32738L371.71332,326.84742L371.95329,326.36747L
				372.19326,325.88752L372.19326,325.40757L372.43323,324.92761L372.6732,324.44766L373.15314,323.48776L373.39311,323.24778L373.39311,322.76783
				L373.63308,322.0479L373.87305,321.56795L374.11302,320.84802L374.35299,320.36807L374.35299,319.88812L374.59296,319.64814L
				374.83293,319.16819L374.83293,318.68824L375.0729,318.20828L375.0729,317.72833L375.31287,317.24838L375.31287,316.76843L375.79281,316.28848
				L375.79281,315.80852L375.79281,315.32857L375.79281,314.84862L375.79281,314.12869L375.79281,313.64874L376.03278,313.16879
				L375.55284,312.92881L374.59296,312.68883L374.11302,312.44886L373.87305,312.44886L373.39311,312.20888L372.6732,311.96891L
				372.19326,311.96891L371.71332,311.96891L371.23338,312.20888L370.75344,312.20888L370.2735,312.20888L369.79356,312.20888L369.31362,312.44886
				L368.83369,312.44886L368.35375,312.44886L367.87381,312.44886L367.39387,312.44886L366.91393,312.44886L366.43399,312.68883
				L366.19402,312.68883L365.71408,312.44886L365.23414,312.20888L364.99417,311.96891L364.51423,311.48895L364.03429,311.48895
				L363.55435,311.48895L363.07441,311.24898L362.83444,311.009L362.3545,310.76903L362.11453,310.52905L361.63459,310.28907L361.15465,310.0491
				L360.91468,309.56915L368.83369,299.73013L369.07365,299.49015L367.39387,297.57034L366.91393,298.77022L365.95405,299.73013
				L365.47411,300.21008L364.99417,301.16998L364.03429,301.40996L362.11453,301.16998L361.15465,301.64993L360.91468,302.12989
				L359.47486,302.36986L358.75495,302.60984L357.79507,302.60984L356.59522,302.12989L354.91543,302.12989L353.95555,302.36986
				L353.23564,302.12989L352.51573,301.88991L352.03579,302.60984L350.59598,302.36986L349.6361,302.36986L348.19628,302.84981L
				346.99643,303.80972L346.27652,304.28967L345.07667,305.24958L343.87682,305.72953L342.437,306.20948L341.47712,305.72953L340.27727,305.24958
				L338.59748,305.24958L337.15766,305.72953L335.71784,305.48955L334.51799,305.0096L333.79808,304.28967L333.31814,303.56974L
				333.07817,303.08979L332.83821,301.64993L331.63836,300.93001L330.67848,300.69003L329.47863,300.69003L328.51875,299.73013L
				328.27878,298.77022L327.3189,297.33037L326.11905,296.61044L325.87908,296.37046L325.39914,295.41056L325.39914,294.21068L325.87908,293.49075
				L326.11905,292.53084L325.63911,291.81092L325.87908,290.85101L326.59899,289.17118L326.59899,288.21127L326.59899,286.77142
				L327.3189,285.57154L328.03881,284.61163L328.03881,283.41175L327.79884,282.9318L328.03881,281.9719L327.79884,280.53204L328.99869,279.09218
				L329.95857,276.9324L330.67848,276.69242L331.63836,275.73252L331.87833,275.01259L333.07817,274.29266L334.03805,273.57273L
				335.71784,272.61283L336.67772,272.37285L337.87757,272.37285L338.83745,272.13288L339.79733,271.65292L340.75721,270.69302L
				341.23715,270.45304L342.91694,269.73312L344.11679,268.53324L343.87682,267.57333L343.87682,263.97369L344.11679,263.49374L
				344.59673,263.25376L344.8367,262.77381L344.8367,262.29386L345.07667,262.05388L345.55661,261.57393L345.79658,261.33395L346.27652,261.09398
				L346.51649,260.61402L346.75646,260.13407L346.99643,259.8941L347.2364,259.41414L347.47637,258.93419L347.71634,258.69422L347.95631,258.21426
				L348.19628,257.97429L348.43625,257.49434L348.67622,257.01438L348.91619,256.77441L349.39613,256.29446L349.6361,256.05448L
				349.87607,255.57453L350.11604,255.33455L350.59598,254.8546L350.59598,254.37465L350.83595,254.13467L351.07591,253.65472L351.31588,253.17477
				L351.55585,252.69481L351.79582,252.45484L352.27576,251.97489L352.51573,251.73491L352.7557,251.25496L352.99567,251.01498L
				353.47561,250.53503L353.71558,250.29505L353.95555,249.8151L354.43549,249.57512L354.67546,249.33515L355.1554,249.09517L355.63534,248.8552
				L355.87531,248.61522L356.35525,248.37524L356.11528,248.13527L355.63534,247.89529L355.1554,247.41534L355.39537,246.93539L
				355.87531,246.93539L356.35525,246.45544L356.35525,245.97548L356.59522,245.49553L356.59522,245.25556L356.83519,244.7756L357.07516,244.29565
				L357.07516,243.8157L357.31513,243.33575L357.5551,242.85579L357.5551,242.37584L357.79507,242.13587L357.79507,241.65591L358.03504,241.17596
				L358.03504,240.69601L358.03504,240.21606L358.27501,239.73611L358.27501,239.25615L358.27501,238.7762L358.27501,238.29625L
				358.51498,237.8163L358.51498,237.33634L358.51498,236.85639L358.51498,236.37644L358.51498,235.89649L358.75495,235.65651L359.23489,235.89649
				L359.71483,236.13646L360.19477,236.13646L360.67471,236.37644L360.91468,236.37644L361.39462,236.61642L361.87456,236.61642
				L362.3545,236.37644L362.83444,236.13646L363.31438,236.13646L363.79432,235.89649L364.27426,235.89649L364.7542,235.89649L364.99417,235.65651
				L365.47411,235.41654L365.95405,235.17656L366.19402,234.69661L366.43399,234.45663L366.91393,234.21666L367.1539,233.97668L
				367.63384,233.49673L368.11378,233.25675L368.35375,233.01678L368.83369,233.01678L369.31362,232.7768L369.79356,232.53682L370.2735,232.53682
				L370.75344,232.7768L371.23338,232.7768L371.47335,233.01678L373.87305,233.49673L381.07215,227.49733L381.07215,227.01737L381.07215,226.53742
				L381.31212,226.05747L381.07215,225.57752L381.07215,225.09756L381.07215,224.61761L381.07215,224.37764L381.07215,223.89768
				L381.07215,223.41773L381.07215,222.93778L381.07215,221.97788L381.31212,221.49792L381.55209,221.01797L381.79206,220.53802
				L382.03203,220.05807L382.272,219.57811L382.51197,218.85819L382.272,218.13826L382.272,217.65831L382.272,216.93838L382.51197,216.21845
				L382.272,215.7385L382.03203,215.25855L381.79206,215.01857L381.55209,214.29864L381.31212,213.81869L381.07215,213.33874L380.83218,212.37883
				L381.07215,211.89888L381.07215,211.41893L381.07215,210.699L381.07215,210.21905L381.07215,209.7391L381.31212,209.25914L384.6717,165.10354
				L403.62932,148.06524L379.15239,115.18852L378.67245,115.4285L378.19251,115.4285L377.71257,115.4285L377.23263,115.4285L376.75269,115.4285
				L376.27275,115.4285L375.79281,115.4285L375.31287,115.4285L375.0729,115.18852L374.59296,115.18852L374.11302,114.94854L373.63308,114.94854
				L373.15314,114.94854L372.6732,114.70857L372.19326,114.70857L371.71332,114.46859L371.23338,114.46859L370.75344,114.22862L
				370.2735,113.98864L369.79356,113.98864L369.07365,113.74866L368.35375,113.50869L367.39387,113.26871L366.91393,112.54878L366.67396,111.82885
				L366.67396,111.10893L366.67396,110.62897L366.67396,109.66907L366.43399,108.94914L366.43399,108.46919L366.43399,107.74926
				L366.43399,107.26931L365.71408,106.06943L365.23414,105.82945L364.7542,105.58948L364.03429,105.10952L363.31438,104.62957L
				362.59447,103.90964L362.3545,103.42969L362.11453,102.94974L361.87456,102.22981L361.39462,101.98983L360.91468,101.50988L360.43474,101.26991
				L359.9548,100.78995L359.47486,100.31L371.47335,95.2705L393.55058,85.91144L430.26597,69.35309L439.38483,59.99402L438.42495,50.87493
				L453.30308,47.27529L453.54305,47.75524L454.02299,47.99522L454.50293,47.99522L454.98287,47.99522L455.46281,47.99522L455.94275,47.99522
				L456.18272,48.23519L456.66266,48.47517L456.90263,48.95512L457.1426,49.43507L457.62254,49.43507L458.10248,49.43507L458.58242,49.43507
				L458.82238,49.1951L459.06235,48.71514L459.54229,48.47517L459.78226,47.99522L460.02223,47.75524L460.50217,47.51526L460.74214,47.03531
				L461.22208,47.03531L461.70202,47.03531L462.18196,47.03531L462.6619,47.27529L462.90187,47.75524L463.14184,47.99522L463.38181,48.47517
				L463.62178,48.71514L463.86175,49.1951L464.10172,49.67505L464.34169,50.155L464.34169,50.63495L464.58166,50.87493L465.0616,51.11491
				L465.54154,51.35488L466.02148,51.35488L466.26145,51.35488L466.74139,51.11491L466.98136,50.87493L467.22133,50.39498L467.4613,49.91503
				L467.4613,49.43507L467.4613,48.95512L467.70127,48.47517L467.70127,47.99522L468.18121,47.75524L468.42118,47.51526L468.90112,47.75524
				L469.38106,47.99522L469.62103,48.47517L469.861,48.95512L469.861,49.1951L469.861,49.67505L469.861,50.155L470.10097,50.63495
				L470.10097,51.11491L470.34094,51.59486L470.58091,51.83483L471.06085,52.07481L471.54079,52.07481L472.02073,52.07481L472.50067,52.31479
				L472.98061,52.31479L473.46055,52.55476L473.70052,52.79474L473.94049,53.03471L474.42043,53.27469L474.90037,53.51467L475.38031,53.51467
				L475.62028,53.27469L476.10022,53.03471L476.34019,52.79474L476.82012,52.79474L477.30006,52.79474L477.78,53.03471L478.25994,53.27469
				L478.49991,53.51467L478.97985,53.75464L479.45979,53.99462L479.69976,54.23459L480.1797,54.47457L480.41967,54.95452L480.65964,55.1945
				L480.89961,55.67445L481.13958,56.1544L481.37955,56.63436L481.37955,56.87433L481.61952,57.35428L481.61952,57.83424L481.85949,58.07421
				L482.33943,58.07421L482.81937,58.07421L483.29931,58.07421L483.77925,57.83424L484.25919,57.83424L484.73913,57.59426L484.9791,57.35428
				L485.45904,56.87433L485.69901,56.63436L486.17895,56.39438L486.65889,56.39438L486.89886,56.1544L487.3788,56.1544L487.85874,56.39438
				L488.33868,56.63436L488.57865,57.11431L489.05859,57.35428L489.29856,57.59426L489.7785,57.59426L513.05557,49.91503L512.8156,50.63495
				L512.57563,51.11491L512.57563,51.35488L512.0957,51.83483L512.0957,52.31479L512.0957,52.55476L512.33567,53.03471L512.33567,53.51467
				L512.0957,53.99462L511.61576,54.23459L511.61576,54.71455L511.85573,54.95452L511.85573,55.43448L512.0957,56.1544L512.33567,56.63436
				L512.57563,57.11431L512.8156,57.35428L513.29554,57.59426L513.53551,57.83424L514.01545,57.83424L514.25542,58.31419L514.25542,58.79414
				L514.01545,59.27409L514.25542,59.51407L514.73536,59.51407L515.2153,59.75404L515.69524,59.75404L515.93521,59.99402L516.17518,60.47397
				L516.65512,60.71395L517.13506,60.71395L516.89509,61.1939L516.65512,61.67385L517.13506,61.91383L517.37503,62.39378L517.85497,62.63376
				L518.09494,62.87373L518.57488,63.11371L518.81485,63.35369L519.05482,63.83364L519.53476,64.31359L519.77473,64.55357L519.53476,65.03352
				L519.77473,65.03352L520.25467,65.03352L520.73461,65.27349L520.97458,65.75345L520.97458,66.2334L521.45452,66.47337L521.45452,66.95333
				L521.69449,67.43328L521.93446,67.67326L521.93446,68.15321L521.93446,68.63316L522.17443,69.11311L522.4144,69.35309L522.65437,69.83304
				L522.89434,70.31299L522.65437,70.79294L522.17443,71.03292L522.17443,71.51287L521.93446,71.99282L521.93446,72.47278L521.93446,72.71275
				L521.93446,73.19271L521.93446,73.67266L521.69449,74.15261L521.45452,74.63256L521.69449,75.11251L521.69449,75.59247L521.69449,75.83244
				L522.17443,76.31239L522.4144,76.79235L522.4144,77.03232L522.4144,77.51227L521.93446,77.75225L521.69449,77.99223L521.45452,78.47218
				L521.21455,78.95213L520.97458,79.43208L521.21455,79.67206L521.45452,80.15201L521.69449,80.63196L521.69449,81.11192L521.69449,81.59187
				L521.69449,81.83184L521.45452,82.3118L520.97458,82.55177L520.73461,83.03172L520.97458,83.2717L521.21455,83.75165L521.45452,84.2316
				L521.45452,84.71156L521.45452,85.19151L521.45452,85.91144L521.69449,86.39139L521.69449,86.87134L521.69449,87.35129L521.93446,87.59127
				L521.93446,88.3112L521.93446,88.79115L521.45452,89.03113L521.21455,89.51108L520.97458,89.99103L520.73461,90.23101L520.49464,90.71096
				L520.25467,91.19091L520.0147,91.43089L520.0147,91.91084L520.25467,92.39079L520.49464,92.87074L520.73461,93.3507L520.97458,93.59067
				L521.21455,94.07062L521.21455,94.55058L520.97458,94.79055L521.21455,95.2705L521.45452,95.51048L521.21455,95.99043L520.97458,96.23041
				L520.73461,96.71036L520.49464,96.95034L520.25467,97.43029L520.0147,97.91024L519.77473,98.39019L519.77473,98.63017L519.77473,99.11012
				L519.77473,99.59007L519.53476,100.07003L519.05482,100.31L519.05482,100.78995L519.29479,101.26991L519.29479,101.50988L519.53476,101.98983
				L519.53476,102.46979L519.53476,102.94974L519.53476,103.42969L520.0147,103.66967L520.49464,103.90964L520.73461,104.14962L
				521.21455,104.3896L521.45452,104.86955L521.45452,105.3495L521.69449,105.82945L521.93446,106.3094L521.93446,106.54938L522.4144,106.78936
				L522.89434,107.02933L523.37428,107.02933L523.85422,106.78936L524.33416,106.78936L524.57413,107.02933L525.05407,107.26931
				L525.53401,107.50928L525.77398,107.98924L526.25392,107.98924L526.73386,107.74926L527.2138,107.74926L527.69374,107.74926L
				527.93371,107.98924L528.41365,107.98924L528.89359,107.98924L529.37353,107.74926L529.6135,107.26931L530.09344,107.02933L530.33341,106.78936
				L530.57337,106.3094L531.05331,106.06943L531.53325,106.3094L532.01319,106.06943L532.25316,106.3094L532.49313,106.78936L532.7331,107.02933
				L533.21304,107.26931L533.69298,107.50928L534.17292,107.74926L534.41289,107.98924L537.5325,111.10893L538.01244,111.58888L
				538.49238,111.58888L538.97232,111.82885L539.45226,111.82885L539.69223,112.30881L539.9322,112.54878L540.41214,112.78876L540.89208,113.02873
				L541.37202,113.02873L541.61199,113.02873L542.09193,113.02873L542.57187,113.02873L543.05181,113.26871L543.53175,113.50869
				L543.77172,113.74866L544.01169,114.22862L544.25166,114.70857L544.49163,114.94854L544.49163,115.4285L544.7316,115.90845L544.7316,116.3884
				L544.49163,117.3483L544.49163,117.82826L544.25166,118.30821L544.25166,119.02814L544.25166,119.50809L544.25166,120.22802L
				544.49163,120.70797L544.49163,121.90785L544.7316,122.3878L544.97157,123.10773L545.45151,123.58768L545.69148,124.30761L545.93145,125.26751
				L545.93145,125.74747L545.93145,126.22742L545.93145,126.70737L545.93145,127.18732L545.69148,128.14723L544.97157,127.66728
				L543.29178,127.90725L541.85196,128.86716L541.37202,131.26692L537.05256,132.22682L536.33265,131.26692L534.89283,131.02694
				L532.7331,131.02694L531.77322,130.06704L531.77322,128.14723L532.01319,126.94735L531.29328,127.90725L530.81334,129.10713L
				529.13356,129.34711L529.37353,128.3872L530.33341,126.70737L530.09344,125.50749L527.69374,127.66728L527.93371,129.34711L525.77398,131.02694
				L520.73461,133.66668L517.615,137.26632L513.77548,139.90606L511.85573,141.82586L510.17594,142.54579L510.17594,143.5057L508.25618,144.70558
				L505.37654,146.62539L501.53702,147.82527L498.41741,149.74508L496.01771,150.70498L493.13808,149.5051L488.33868,149.74508L
				484.25919,148.78517L482.5794,147.34531L481.37955,147.34531L478.25994,147.10534L477.54003,148.06524L476.10022,148.06524L474.90037,147.10534
				L473.22058,146.14543L473.70052,147.34531L471.54079,147.58529L469.861,148.30522L468.90112,147.34531L469.861,146.38541L468.18121,145.42551
				L466.98136,145.66548L467.22133,144.70558L466.74139,143.98565L465.54154,144.94555L464.10172,146.38541L462.6619,147.82527L
				461.94199,148.06524L461.46205,149.5051L461.22208,150.94496L461.70202,152.14484L462.42193,153.34472L461.46205,155.02455L460.02223,155.74448
				L458.58242,156.70438L457.86251,157.66429L456.90263,158.86417L454.50293,161.98386L453.30308,164.86357L451.62329,167.26333
				L449.9435,169.18314L447.78377,171.82287L445.86401,173.98266L443.94425,176.38242L442.7444,177.5823L441.30458,180.70199L439.38483,185.02156
				L437.70504,188.38122L435.78528,191.98087L433.38558,199.18015L431.46582,203.49972L429.78603,207.81929L428.34621,211.89888
				L427.14636,217.41833L426.18648,219.57811L425.94651,219.81809L422.8269,230.61701L420.42721,239.73611L418.98739,244.7756L417.78754,252.21486
				L416.58769,260.13407L416.10775,265.65352L416.58769,271.65292L417.54757,276.21247L417.78754,277.8923L418.50745,280.05209L
				419.22736,281.49194L420.42721,283.65173L421.38709,283.8917L421.14712,284.61163L420.90715,285.09158L421.14712,287.25137L421.86703,288.9312
				L422.34697,290.13108L424.02675,292.29087L426.18648,294.45065L427.86627,295.41056L429.78603,296.13048L431.22585,295.41056
				L433.14561,294.69063L434.34546,292.53084L435.54531,291.33096L436.50519,292.05089L438.66492,292.05089L439.86477,292.77082
				L439.86477,293.73072L439.86477,294.45065L441.30458,293.73072L443.22434,293.73072L445.62404,295.41056L445.62404,296.61044
				L446.58392,295.65053L448.26371,295.65053L449.46356,296.85041L449.9435,298.53025L450.90338,300.45005L451.62329,301.64993L
				452.10323,302.60984L451.86326,303.08979L452.3432,303.80972L453.06311,303.56974L453.78302,302.84981L454.50293,303.32977L455.22284,303.80972
				L456.42269,303.56974L457.38257,304.52965L457.1426,306.44946L456.18272,306.92941L454.7429,307.16938L455.70278,308.60924L456.18272,309.56915
				L456.42269,310.28907L457.38257,310.0491L458.34245,310.76903L457.38257,311.72893L456.66266,311.72893z"/>
			<path clip-path="url(#SVG_CP_1)" fill="none" stroke="#6E6E6E" stroke-width="0.47994" stroke-miterlimit="10" stroke-linecap="round" stroke-linejoin="round" d="
				M456.66266,311.72893L455.94275,311.72893L456.18272,312.20888L456.66266,311.72893L457.1426,312.68883L456.90263,313.40876L
				458.10248,313.16879L458.10248,314.12869L458.34245,315.32857L458.82238,315.80852L459.78226,316.0485L459.06235,316.76843L458.10248,316.76843
				L457.38257,317.24838L458.10248,317.96831L458.58242,318.68824L458.10248,319.16819L458.58242,320.36807L457.62254,320.84802
				L456.42269,321.088L455.46281,321.088L454.50293,320.36807L453.78302,318.68824L453.06311,318.68824L452.82314,317.72833L453.54305,317.0084
				L454.7429,317.0084L454.7429,316.0485L453.78302,315.32857L452.82314,315.32857L451.38332,315.0886L449.22359,314.84862L448.74365,313.64874
				L447.78377,312.92881L448.74365,312.20888L449.22359,313.40876L449.9435,312.92881L450.18347,312.20888L449.70353,310.76903L
				448.98362,311.24898L448.50368,311.24898L448.98362,310.28907L447.78377,310.28907L446.82389,310.52905L446.10398,310.28907L
				445.1441,309.08919L444.42419,308.36926L443.46431,308.12929L442.7444,308.60924L442.7444,309.56915L441.78452,308.84922L441.30458,306.92941
				L440.10474,306.44946L438.90489,306.44946L438.18498,306.20948L436.74516,305.24958L436.02525,304.52965L435.06537,304.28967
				L435.06537,305.24958L433.62555,305.24958L433.38558,305.48955L432.66567,305.72953L431.46582,305.9695L430.50594,306.44946L
				429.78603,307.40936L429.78603,309.32917L429.30609,310.28907L429.06612,311.24898L429.06612,311.96891L430.026,312.68883L430.26597,313.64874
				L429.54606,314.36867L429.54606,315.56855L429.30609,317.0084L429.06612,318.68824L429.54606,320.36807L431.22585,322.52785L
				431.94576,323.24778L432.90564,323.72773L434.58543,324.68764L434.34546,326.12749L433.86552,327.0874L434.34546,328.28728L435.06537,328.76723
				L435.06537,329.72714L435.30534,331.16699L436.74516,330.68704L436.98513,329.72714L436.50519,329.24718L436.26522,328.52726
				L436.98513,328.76723L438.66492,329.48716L438.42495,330.92702L438.66492,331.88692L439.6248,332.60685L439.38483,334.52666L
				439.6248,336.20649L440.58468,336.92642L441.78452,336.68644L442.02449,335.96651L442.7444,336.92642L443.22434,337.88632L442.98437,338.84623
				L443.46431,339.80613L444.66416,338.84623L444.66416,340.04611L445.38407,341.96592L447.78377,343.64575L449.46356,345.08561
				L449.9435,345.80553L450.18347,347.00541L450.66341,348.92522L450.42344,350.60506L450.18347,353.72474L451.62329,357.08441L
				452.10323,357.80434L453.54305,359.96412L454.02299,361.64395L455.46281,362.60386L454.7429,365.48357L454.7429,366.92343L455.70278,370.04312
				L456.66266,371.00302L457.86251,372.2029L460.50217,372.92283L461.94199,374.36269L462.18196,376.52247L462.42193,378.92223L
				462.18196,381.56197L461.22208,383.48178L460.98211,385.64156L460.98211,387.08142L461.94199,388.04132L462.42193,388.52128L
				464.10172,388.2813L464.82163,389.00123L464.82163,390.20111L464.10172,390.68106L461.94199,389.72116L461.22208,388.76125L460.50217,389.72116
				L459.54229,390.68106L458.58242,391.16101L459.06235,392.36089L460.02223,392.84085L458.34245,393.3208L456.90263,392.84085L
				455.94275,394.04073L455.94275,396.92044L456.66266,399.80015L458.10248,401.00003L459.78226,401.47998L460.50217,402.91984L
				460.74214,404.11972L462.42193,404.83965L462.6619,406.03953L463.38181,406.51948L463.62178,407.71936L463.14184,409.39919L463.86175,410.83905
				L464.34169,411.79896L463.86175,412.51888L463.86175,413.95874L463.62178,416.59848L464.34169,417.31841L464.10172,418.03833
				L463.14184,417.79836L462.42193,418.03833L462.18196,418.27831L462.42193,418.99824L462.42193,420.67807L462.42193,422.3579L
				460.98211,423.07783L460.02223,424.75766L458.34245,425.71757L458.82238,426.91745L458.58242,427.63738L457.62254,427.15742L
				457.38257,426.67747L456.90263,426.91745L456.42269,426.67747L455.94275,426.19752L455.70278,425.95754L455.70278,425.47759L
				455.46281,424.75766L454.98287,424.75766L454.50293,424.75766L454.26296,424.27771L453.78302,424.03774L453.30308,424.03774L
				453.30308,423.55778L453.54305,423.07783L453.30308,422.83786L452.82314,422.3579L452.58317,422.3579L452.10323,422.3579L451.62329,422.3579
				L451.14335,422.3579L450.66341,422.3579L450.18347,422.3579L449.70353,422.11793L449.22359,422.3579L448.74365,422.59788L448.50368,422.83786
				L448.02374,423.07783L447.78377,423.31781L447.30383,423.55778L446.82389,423.79776L446.58392,424.03774L446.10398,424.27771
				L445.62404,424.51769L445.1441,424.75766L444.90413,424.99764L444.42419,425.23762L444.18422,425.47759L443.70428,425.23762L
				443.70428,424.99764L443.22434,424.75766L442.7444,424.75766L442.26446,424.99764L441.78452,424.99764L441.54455,425.23762L441.06461,425.47759
				L440.82464,425.71757L440.34471,425.95754L439.86477,426.19752L439.6248,426.19752L439.14486,426.4375L438.66492,426.67747L438.42495,426.91745
				L437.94501,427.3974L437.70504,427.3974L437.2251,427.63738L436.74516,427.87735L436.26522,427.63738L435.78528,427.63738L435.78528,427.15742
				L435.30534,427.3974L435.30534,426.91745L435.30534,426.4375L435.06537,425.95754L434.8254,425.71757L434.58543,425.23762L434.34546,424.75766
				L434.10549,424.51769L433.86552,424.03774L433.38558,423.79776L433.14561,423.31781L432.90564,422.83786L432.66567,422.59788
				L432.66567,422.11793L432.4257,421.63798L432.4257,421.15802L432.18573,420.67807L432.4257,420.19812L432.4257,419.71817L432.4257,419.23821
				L432.4257,418.75826L432.66567,418.27831L432.66567,418.03833L432.90564,417.55838L433.38558,417.31841L433.62555,416.83845L
				434.10549,416.59848L434.34546,416.3585L434.8254,416.11853L435.06537,415.63857L435.06537,415.15862L435.06537,414.67867L434.8254,414.19872
				L434.8254,413.71876L434.58543,413.23881L434.34546,412.99884L433.86552,412.99884L433.38558,412.51888L432.90564,412.51888L
				432.66567,412.51888L432.18573,412.27891L431.70579,412.27891L431.22585,412.51888L430.74591,412.51888L430.26597,412.27891L
				430.026,412.03893L429.54606,411.79896L429.06612,411.79896L428.58618,411.79896L428.10624,411.79896L427.6263,412.03893L427.14636,412.27891
				L426.90639,412.51888L426.42645,412.75886L425.94651,412.75886L425.46657,412.51888L425.2266,412.27891L424.98663,412.03893L
				424.50669,412.03893L424.50669,411.55898L424.50669,411.07903L424.02675,411.07903L423.54681,410.83905L423.06687,410.83905L
				422.58694,410.83905L422.34697,410.83905L421.86703,410.83905L421.38709,410.83905L420.90715,411.07903L420.42721,410.83905L
				419.94727,410.83905L419.46733,410.83905L418.98739,410.83905L418.74742,411.07903L418.26748,411.07903L417.78754,411.319L416.82766,411.319
				L414.66793,405.3196L414.42796,404.83965L414.18799,404.3597L414.18799,403.87975L413.70805,403.39979L413.70805,402.91984L412.98814,402.91984
				L412.26823,402.91984L411.30835,403.15982L410.82841,403.15982L409.86853,402.91984L409.38859,402.67986L408.90865,402.43989
				L408.42871,402.19991L407.94877,401.95994L406.98889,401.47998L406.26898,401.24001L405.06913,400.76006L404.10926,400.52008
				L403.38935,400.2801L402.42947,400.2801L401.70956,400.52008L400.74968,401.00003L400.26974,401.71996L400.02977,401.95994L399.54983,402.43989
				L398.82992,403.15982L398.58995,403.63977L398.34998,403.87975L397.87004,404.11972L397.3901,404.3597L397.15013,404.59967L396.67019,404.83965
				L396.19025,404.83965L395.47034,404.83965L394.9904,404.59967L394.51046,404.59967L394.27049,404.83965L393.79055,405.07963L
				393.07064,405.07963L392.5907,405.07963L392.35073,404.83965L392.11076,404.3597L392.11076,403.87975L391.87079,403.63977L391.63082,403.39979
				L391.15088,403.15982L390.43097,403.15982L389.95103,403.15982L389.47109,403.39979L389.23112,403.87975L388.75118,404.11972
				L388.27124,404.3597L387.7913,405.07963L387.31136,405.55958L387.07139,406.03953L386.83142,406.51948L386.35149,407.23941L385.87155,407.71936
				L385.63158,407.95934L385.15164,408.43929L384.91167,408.67927L384.6717,409.15922L384.19176,409.63917L383.71182,409.87915L
				383.23188,410.11912L382.75194,410.11912L382.272,410.3591L381.79206,410.3591L380.83218,410.3591L380.35224,410.59908L379.8723,410.59908
				L379.39236,410.3591L378.91242,409.87915L378.43248,409.63917L377.95254,409.39919L377.4726,409.15922L377.23263,408.67927L376.99266,408.43929
				L376.51272,407.95934L376.27275,407.47939L376.03278,406.99943L375.79281,406.51948L375.31287,406.27951L375.0729,406.03953L
				374.59296,405.55958L374.11302,405.3196L373.63308,404.83965L373.39311,404.59967L372.91317,404.3597L372.19326,404.3597L371.71332,404.3597
				L371.23338,404.11972L370.51347,404.11972L370.03353,403.87975L369.55359,403.87975L368.83369,403.39979L368.59372,402.91984
				L368.11378,402.43989L367.87381,401.95994L367.39387,401.47998L367.1539,401.00003L366.67396,400.52008L366.19402,399.80015L
				365.95405,399.56018L365.23414,398.84025L364.7542,398.60027L364.03429,398.3603L363.55435,397.88034L363.31438,397.64037L362.59447,397.40039
				L362.11453,397.40039L361.63459,397.64037L361.15465,397.64037L360.43474,397.88034L359.9548,397.88034L359.47486,397.88034L
				358.99492,397.88034L358.51498,397.64037L358.27501,397.64037L358.27501,396.92044L358.27501,396.44049L358.27501,395.96053L
				358.03504,395.48058L357.79507,395.00063L357.79507,394.76065L357.79507,394.2807L357.79507,393.80075L358.03504,393.3208L358.03504,392.84085
				L358.27501,392.36089L358.51498,391.88094L358.51498,391.64096L358.75495,391.16101L358.99492,390.68106L359.23489,390.20111
				L359.23489,389.72116L359.23489,389.2412L358.99492,389.00123L358.99492,388.52128L358.99492,388.04132L359.23489,387.56137L
				359.47486,387.08142L359.71483,386.84144L359.9548,386.36149L360.19477,385.88154L360.43474,385.64156L360.91468,385.40159L361.15465,384.92163
				L360.91468,384.44168L360.91468,383.96173L361.15465,383.48178L361.15465,383.00183L361.15465,382.52187L361.15465,382.04192
				L361.15465,381.56197L361.15465,381.08202L360.91468,380.60207L360.91468,380.12211L360.67471,379.88214L360.91468,379.40218
				L361.15465,378.92223L361.39462,378.44228L361.39462,378.2023L361.39462,377.72235L361.39462,377.2424L361.39462,376.76245L361.39462,376.2825
				L361.39462,375.80254L361.39462,375.32259L361.39462,374.84264L361.63459,374.36269L361.87456,373.88273L361.87456,373.40278
				L362.3545,373.16281L362.59447,372.92283L363.07441,372.68285L363.55435,372.68285L364.03429,372.44288L364.51423,372.44288L
				362.3545,369.80314L362.11453,369.32319L362.11453,368.84324L362.11453,368.36329L361.87456,367.88333L361.87456,367.40338L361.63459,366.68345
				L361.63459,365.96352L361.63459,365.48357L361.39462,365.00362L361.39462,364.28369L361.15465,363.56376L361.15465,363.32379
				L360.67471,362.84384L360.67471,362.36388L360.91468,361.88393L361.15465,361.40398L361.39462,360.92403L361.15465,360.44407
				L361.15465,359.96412L361.15465,359.48417L360.91468,359.00422L361.15465,358.28429L361.15465,357.56436L361.39462,356.84443
				L361.39462,356.36448L361.39462,355.88453L361.39462,355.40458L361.39462,354.68465L361.15465,354.2047L360.91468,353.72474L
				360.67471,353.00482L360.43474,352.52486L360.19477,352.04491L359.9548,351.56496L359.71483,351.08501L359.23489,350.84503L358.75495,350.1251
				L358.03504,349.40517L357.79507,349.1652L357.31513,348.44527L357.31513,347.96532L357.07516,347.48537L356.59522,347.00541L
				356.35525,346.76544L355.87531,346.52546L355.87531,345.80553L356.11528,345.56556L356.35525,345.08561L356.59522,344.60565L
				357.07516,344.1257L357.31513,343.64575L358.03504,343.1658L358.27501,342.68584L358.75495,342.20589L358.99492,341.72594L359.47486,341.48596
				L359.71483,341.00601L360.19477,340.76604L360.43474,340.28608L360.91468,339.80613L361.15465,339.56616L361.63459,339.0862L
				362.3545,338.60625L362.83444,337.64635L363.55435,337.16639L364.03429,336.92642L364.51423,336.44647L364.99417,336.20649L365.47411,335.72654
				L365.71408,335.48656L366.19402,335.24659L366.67396,335.00661L367.1539,334.76663L367.63384,334.28668L368.11378,334.04671L
				368.35375,333.32678L368.59372,333.0868L369.07365,332.36687L369.31362,331.88692L369.55359,331.64694L369.79356,331.16699L370.03353,330.68704
				L370.2735,330.20709L370.51347,329.72714L370.75344,329.00721L370.99341,328.28728L370.99341,327.80733L371.47335,327.32738L
				371.71332,326.84742L371.95329,326.36747L372.19326,325.88752L372.19326,325.40757L372.43323,324.92761L372.6732,324.44766L373.15314,323.48776
				L373.39311,323.24778L373.39311,322.76783L373.63308,322.0479L373.87305,321.56795L374.11302,320.84802L374.35299,320.36807L
				374.35299,319.88812L374.59296,319.64814L374.83293,319.16819L374.83293,318.68824L375.0729,318.20828L375.0729,317.72833L375.31287,317.24838
				L375.31287,316.76843L375.79281,316.28848L375.79281,315.80852L375.79281,315.32857L375.79281,314.84862L375.79281,314.12869
				L375.79281,313.64874L376.03278,313.16879L375.55284,312.92881L374.59296,312.68883L374.11302,312.44886L373.87305,312.44886
				L373.39311,312.20888L372.6732,311.96891L372.19326,311.96891L371.71332,311.96891L371.23338,312.20888L370.75344,312.20888L
				370.2735,312.20888L369.79356,312.20888L369.31362,312.44886L368.83369,312.44886L368.35375,312.44886L367.87381,312.44886L367.39387,312.44886
				L366.91393,312.44886L366.43399,312.68883L366.19402,312.68883L365.71408,312.44886L365.23414,312.20888L364.99417,311.96891
				L364.51423,311.48895L364.03429,311.48895L363.55435,311.48895L363.07441,311.24898L362.83444,311.009L362.3545,310.76903L362.11453,310.52905
				L361.63459,310.28907L361.15465,310.0491L360.91468,309.56915L368.83369,299.73013L369.07365,299.49015L367.39387,297.57034L
				366.91393,298.77022L365.95405,299.73013L365.47411,300.21008L364.99417,301.16998L364.03429,301.40996L362.11453,301.16998L
				361.15465,301.64993L360.91468,302.12989L359.47486,302.36986L358.75495,302.60984L357.79507,302.60984L356.59522,302.12989L
				354.91543,302.12989L353.95555,302.36986L353.23564,302.12989L352.51573,301.88991L352.03579,302.60984L350.59598,302.36986L
				349.6361,302.36986L348.19628,302.84981L346.99643,303.80972L346.27652,304.28967L345.07667,305.24958L343.87682,305.72953L342.437,306.20948
				L341.47712,305.72953L340.27727,305.24958L338.59748,305.24958L337.15766,305.72953L335.71784,305.48955L334.51799,305.0096L
				333.79808,304.28967L333.31814,303.56974L333.07817,303.08979L332.83821,301.64993L331.63836,300.93001L330.67848,300.69003L
				329.47863,300.69003L328.51875,299.73013L328.27878,298.77022L327.3189,297.33037L326.11905,296.61044L325.87908,296.37046L325.39914,295.41056
				L325.39914,294.21068L325.87908,293.49075L326.11905,292.53084L325.63911,291.81092L325.87908,290.85101L326.59899,289.17118
				L326.59899,288.21127L326.59899,286.77142L327.3189,285.57154L328.03881,284.61163L328.03881,283.41175L327.79884,282.9318L328.03881,281.9719
				L327.79884,280.53204L328.99869,279.09218L329.95857,276.9324L330.67848,276.69242L331.63836,275.73252L331.87833,275.01259L
				333.07817,274.29266L334.03805,273.57273L335.71784,272.61283L336.67772,272.37285L337.87757,272.37285L338.83745,272.13288L
				339.79733,271.65292L340.75721,270.69302L341.23715,270.45304L342.91694,269.73312L344.11679,268.53324L343.87682,267.57333L
				343.87682,263.97369L344.11679,263.49374L344.59673,263.25376L344.8367,262.77381L344.8367,262.29386L345.07667,262.05388L345.55661,261.57393
				L345.79658,261.33395L346.27652,261.09398L346.51649,260.61402L346.75646,260.13407L346.99643,259.8941L347.2364,259.41414L347.47637,258.93419
				L347.71634,258.69422L347.95631,258.21426L348.19628,257.97429L348.43625,257.49434L348.67622,257.01438L348.91619,256.77441
				L349.39613,256.29446L349.6361,256.05448L349.87607,255.57453L350.11604,255.33455L350.59598,254.8546L350.59598,254.37465L350.83595,254.13467
				L351.07591,253.65472L351.31588,253.17477L351.55585,252.69481L351.79582,252.45484L352.27576,251.97489L352.51573,251.73491
				L352.7557,251.25496L352.99567,251.01498L353.47561,250.53503L353.71558,250.29505L353.95555,249.8151L354.43549,249.57512L354.67546,249.33515
				L355.1554,249.09517L355.63534,248.8552L355.87531,248.61522L356.35525,248.37524L356.11528,248.13527L355.63534,247.89529L355.1554,247.41534
				L355.39537,246.93539L355.87531,246.93539L356.35525,246.45544L356.35525,245.97548L356.59522,245.49553L356.59522,245.25556
				L356.83519,244.7756L357.07516,244.29565L357.07516,243.8157L357.31513,243.33575L357.5551,242.85579L357.5551,242.37584L357.79507,242.13587
				L357.79507,241.65591L358.03504,241.17596L358.03504,240.69601L358.03504,240.21606L358.27501,239.73611L358.27501,239.25615
				L358.27501,238.7762L358.27501,238.29625L358.51498,237.8163L358.51498,237.33634L358.51498,236.85639L358.51498,236.37644L358.51498,235.89649
				L358.75495,235.65651L359.23489,235.89649L359.71483,236.13646L360.19477,236.13646L360.67471,236.37644L360.91468,236.37644
				L361.39462,236.61642L361.87456,236.61642L362.3545,236.37644L362.83444,236.13646L363.31438,236.13646L363.79432,235.89649L
				364.27426,235.89649L364.7542,235.89649L364.99417,235.65651L365.47411,235.41654L365.95405,235.17656L366.19402,234.69661L366.43399,234.45663
				L366.91393,234.21666L367.1539,233.97668L367.63384,233.49673L368.11378,233.25675L368.35375,233.01678L368.83369,233.01678L
				369.31362,232.7768L369.79356,232.53682L370.2735,232.53682L370.75344,232.7768L371.23338,232.7768L371.47335,233.01678L373.87305,233.49673
				L381.07215,227.49733L381.07215,227.01737L381.07215,226.53742L381.31212,226.05747L381.07215,225.57752L381.07215,225.09756
				L381.07215,224.61761L381.07215,224.37764L381.07215,223.89768L381.07215,223.41773L381.07215,222.93778L381.07215,221.97788
				L381.31212,221.49792L381.55209,221.01797L381.79206,220.53802L382.03203,220.05807L382.272,219.57811L382.51197,218.85819L382.272,218.13826
				L382.272,217.65831L382.272,216.93838L382.51197,216.21845L382.272,215.7385L382.03203,215.25855L381.79206,215.01857L381.55209,214.29864
				L381.31212,213.81869L381.07215,213.33874L380.83218,212.37883L381.07215,211.89888L381.07215,211.41893L381.07215,210.699L381.07215,210.21905
				L381.07215,209.7391L381.31212,209.25914L384.6717,165.10354L403.62932,148.06524L379.15239,115.18852L378.67245,115.4285L378.19251,115.4285
				L377.71257,115.4285L377.23263,115.4285L376.75269,115.4285L376.27275,115.4285L375.79281,115.4285L375.31287,115.4285L375.0729,115.18852
				L374.59296,115.18852L374.11302,114.94854L373.63308,114.94854L373.15314,114.94854L372.6732,114.70857L372.19326,114.70857L
				371.71332,114.46859L371.23338,114.46859L370.75344,114.22862L370.2735,113.98864L369.79356,113.98864L369.07365,113.74866L368.35375,113.50869
				L367.39387,113.26871L366.91393,112.54878L366.67396,111.82885L366.67396,111.10893L366.67396,110.62897L366.67396,109.66907
				L366.43399,108.94914L366.43399,108.46919L366.43399,107.74926L366.43399,107.26931L365.71408,106.06943L365.23414,105.82945
				L364.7542,105.58948L364.03429,105.10952L363.31438,104.62957L362.59447,103.90964L362.3545,103.42969L362.11453,102.94974L361.87456,102.22981
				L361.39462,101.98983L360.91468,101.50988L360.43474,101.26991L359.9548,100.78995L359.47486,100.31L371.47335,95.2705L393.55058,85.91144
				L430.26597,69.35309L439.38483,59.99402L438.42495,50.87493L453.30308,47.27529L453.54305,47.75524L454.02299,47.99522L454.50293,47.99522
				L454.98287,47.99522L455.46281,47.99522L455.94275,47.99522L456.18272,48.23519L456.66266,48.47517L456.90263,48.95512L457.1426,49.43507
				L457.62254,49.43507L458.10248,49.43507L458.58242,49.43507L458.82238,49.1951L459.06235,48.71514L459.54229,48.47517L459.78226,47.99522
				L460.02223,47.75524L460.50217,47.51526L460.74214,47.03531L461.22208,47.03531L461.70202,47.03531L462.18196,47.03531L462.6619,47.27529
				L462.90187,47.75524L463.14184,47.99522L463.38181,48.47517L463.62178,48.71514L463.86175,49.1951L464.10172,49.67505L464.34169,50.155
				L464.34169,50.63495L464.58166,50.87493L465.0616,51.11491L465.54154,51.35488L466.02148,51.35488L466.26145,51.35488L466.74139,51.11491
				L466.98136,50.87493L467.22133,50.39498L467.4613,49.91503L467.4613,49.43507L467.4613,48.95512L467.70127,48.47517L467.70127,47.99522
				L468.18121,47.75524L468.42118,47.51526L468.90112,47.75524L469.38106,47.99522L469.62103,48.47517L469.861,48.95512L469.861,49.1951
				L469.861,49.67505L469.861,50.155L470.10097,50.63495L470.10097,51.11491L470.34094,51.59486L470.58091,51.83483L471.06085,52.07481
				L471.54079,52.07481L472.02073,52.07481L472.50067,52.31479L472.98061,52.31479L473.46055,52.55476L473.70052,52.79474L473.94049,53.03471
				L474.42043,53.27469L474.90037,53.51467L475.38031,53.51467L475.62028,53.27469L476.10022,53.03471L476.34019,52.79474L476.82012,52.79474
				L477.30006,52.79474L477.78,53.03471L478.25994,53.27469L478.49991,53.51467L478.97985,53.75464L479.45979,53.99462L479.69976,54.23459
				L480.1797,54.47457L480.41967,54.95452L480.65964,55.1945L480.89961,55.67445L481.13958,56.1544L481.37955,56.63436L481.37955,56.87433
				L481.61952,57.35428L481.61952,57.83424L481.85949,58.07421L482.33943,58.07421L482.81937,58.07421L483.29931,58.07421L483.77925,57.83424
				L484.25919,57.83424L484.73913,57.59426L484.9791,57.35428L485.45904,56.87433L485.69901,56.63436L486.17895,56.39438L486.65889,56.39438
				L486.89886,56.1544L487.3788,56.1544L487.85874,56.39438L488.33868,56.63436L488.57865,57.11431L489.05859,57.35428"/>
			<path clip-path="url(#SVG_CP_1)" fill="none" stroke="#6E6E6E" stroke-width="0.47994" stroke-miterlimit="10" stroke-linecap="round" stroke-linejoin="round" d="
				M489.05859,57.35428L489.29856,57.59426L489.7785,57.59426L513.05557,49.91503L512.8156,50.63495L512.57563,51.11491L512.57563,51.35488
				L512.0957,51.83483L512.0957,52.31479L512.0957,52.55476L512.33567,53.03471L512.33567,53.51467L512.0957,53.99462L511.61576,54.23459
				L511.61576,54.71455L511.85573,54.95452L511.85573,55.43448L512.0957,56.1544L512.33567,56.63436L512.57563,57.11431L512.8156,57.35428
				L513.29554,57.59426L513.53551,57.83424L514.01545,57.83424L514.25542,58.31419L514.25542,58.79414L514.01545,59.27409L514.25542,59.51407
				L514.73536,59.51407L515.2153,59.75404L515.69524,59.75404L515.93521,59.99402L516.17518,60.47397L516.65512,60.71395L517.13506,60.71395
				L516.89509,61.1939L516.65512,61.67385L517.13506,61.91383L517.37503,62.39378L517.85497,62.63376L518.09494,62.87373L518.57488,63.11371
				L518.81485,63.35369L519.05482,63.83364L519.53476,64.31359L519.77473,64.55357L519.53476,65.03352L519.77473,65.03352L520.25467,65.03352
				L520.73461,65.27349L520.97458,65.75345L520.97458,66.2334L521.45452,66.47337L521.45452,66.95333L521.69449,67.43328L521.93446,67.67326
				L521.93446,68.15321L521.93446,68.63316L522.17443,69.11311L522.4144,69.35309L522.65437,69.83304L522.89434,70.31299L522.65437,70.79294
				L522.17443,71.03292L522.17443,71.51287L521.93446,71.99282L521.93446,72.47278L521.93446,72.71275L521.93446,73.19271L521.93446,73.67266
				L521.69449,74.15261L521.45452,74.63256L521.69449,75.11251L521.69449,75.59247L521.69449,75.83244L522.17443,76.31239L522.4144,76.79235
				L522.4144,77.03232L522.4144,77.51227L521.93446,77.75225L521.69449,77.99223L521.45452,78.47218L521.21455,78.95213L520.97458,79.43208
				L521.21455,79.67206L521.45452,80.15201L521.69449,80.63196L521.69449,81.11192L521.69449,81.59187L521.69449,81.83184L521.45452,82.3118
				L520.97458,82.55177L520.73461,83.03172L520.97458,83.2717L521.21455,83.75165L521.45452,84.2316L521.45452,84.71156L521.45452,85.19151
				L521.45452,85.91144L521.69449,86.39139L521.69449,86.87134L521.69449,87.35129L521.93446,87.59127L521.93446,88.3112L521.93446,88.79115
				L521.45452,89.03113L521.21455,89.51108L520.97458,89.99103L520.73461,90.23101L520.49464,90.71096L520.25467,91.19091L520.0147,91.43089
				L520.0147,91.91084L520.25467,92.39079L520.49464,92.87074L520.73461,93.3507L520.97458,93.59067L521.21455,94.07062L521.21455,94.55058
				L520.97458,94.79055L521.21455,95.2705L521.45452,95.51048L521.21455,95.99043L520.97458,96.23041L520.73461,96.71036L520.49464,96.95034
				L520.25467,97.43029L520.0147,97.91024L519.77473,98.39019L519.77473,98.63017L519.77473,99.11012L519.77473,99.59007L519.53476,100.07003
				L519.05482,100.31L519.05482,100.78995L519.29479,101.26991L519.29479,101.50988L519.53476,101.98983L519.53476,102.46979L519.53476,102.94974
				L519.53476,103.42969L520.0147,103.66967L520.49464,103.90964L520.73461,104.14962L521.21455,104.3896L521.45452,104.86955L521.45452,105.3495
				L521.69449,105.82945L521.93446,106.3094L521.93446,106.54938L522.4144,106.78936L522.89434,107.02933L523.37428,107.02933L523.85422,106.78936
				L524.33416,106.78936L524.57413,107.02933L525.05407,107.26931L525.53401,107.50928L525.77398,107.98924L526.25392,107.98924
				L526.73386,107.74926L527.2138,107.74926L527.69374,107.74926L527.93371,107.98924L528.41365,107.98924L528.89359,107.98924L
				529.37353,107.74926L529.6135,107.26931L530.09344,107.02933L530.33341,106.78936L530.57337,106.3094L531.05331,106.06943L531.53325,106.3094
				L532.01319,106.06943L532.25316,106.3094L532.49313,106.78936L532.7331,107.02933L533.21304,107.26931L533.69298,107.50928L534.17292,107.74926
				L534.41289,107.98924L537.5325,111.10893L538.01244,111.58888L538.49238,111.58888L538.97232,111.82885L539.45226,111.82885L
				539.69223,112.30881L539.9322,112.54878L540.41214,112.78876L540.89208,113.02873L541.37202,113.02873L541.61199,113.02873L542.09193,113.02873
				L542.57187,113.02873L543.05181,113.26871L543.53175,113.50869L543.77172,113.74866L544.01169,114.22862L544.25166,114.70857
				L544.49163,114.94854L544.49163,115.4285L544.7316,115.90845L544.7316,116.3884L544.49163,117.3483L544.49163,117.82826L544.25166,118.30821
				L544.25166,119.02814L544.25166,119.50809L544.25166,120.22802L544.49163,120.70797L544.49163,121.90785L544.7316,122.3878L544.97157,123.10773
				L545.45151,123.58768L545.69148,124.30761L545.93145,125.26751L545.93145,125.74747L545.93145,126.22742L545.93145,126.70737
				L545.93145,127.18732L545.69148,128.14723L544.97157,127.66728L543.29178,127.90725L541.85196,128.86716L541.37202,131.26692
				L537.05256,132.22682L536.33265,131.26692L534.89283,131.02694L532.7331,131.02694L531.77322,130.06704L531.77322,128.14723L
				532.01319,126.94735L531.29328,127.90725L530.81334,129.10713L529.13356,129.34711L529.37353,128.3872L530.33341,126.70737L530.09344,125.50749
				L527.69374,127.66728L527.93371,129.34711L525.77398,131.02694L520.73461,133.66668L517.615,137.26632L513.77548,139.90606L511.85573,141.82586
				L510.17594,142.54579L510.17594,143.5057L508.25618,144.70558L505.37654,146.62539L501.53702,147.82527L498.41741,149.74508L
				496.01771,150.70498L493.13808,149.5051L488.33868,149.74508L484.25919,148.78517L482.5794,147.34531L481.37955,147.34531L478.25994,147.10534
				L477.54003,148.06524L476.10022,148.06524L474.90037,147.10534L473.22058,146.14543L473.70052,147.34531L471.54079,147.58529
				L469.861,148.30522L468.90112,147.34531L469.861,146.38541L468.18121,145.42551L466.98136,145.66548L467.22133,144.70558L466.74139,143.98565
				L465.54154,144.94555L464.10172,146.38541L462.6619,147.82527L461.94199,148.06524L461.46205,149.5051L461.22208,150.94496L461.70202,152.14484
				L462.42193,153.34472L461.46205,155.02455L460.02223,155.74448L458.58242,156.70438L457.86251,157.66429L456.90263,158.86417
				L454.50293,161.98386L453.30308,164.86357L451.62329,167.26333L449.9435,169.18314L447.78377,171.82287L445.86401,173.98266L
				443.94425,176.38242L442.7444,177.5823L441.30458,180.70199L439.38483,185.02156L437.70504,188.38122L435.78528,191.98087L433.38558,199.18015
				L431.46582,203.49972L429.78603,207.81929L428.34621,211.89888L427.14636,217.41833L426.18648,219.57811L425.94651,219.81809
				L422.8269,230.61701L420.42721,239.73611L418.98739,244.7756L417.78754,252.21486L416.58769,260.13407L416.10775,265.65352L416.58769,271.65292
				L417.54757,276.21247L417.78754,277.8923L418.50745,280.05209L419.22736,281.49194L420.42721,283.65173L421.38709,283.8917L421.14712,284.61163
				L420.90715,285.09158L421.14712,287.25137L421.86703,288.9312L422.34697,290.13108L424.02675,292.29087L426.18648,294.45065L
				427.86627,295.41056L429.78603,296.13048L431.22585,295.41056L433.14561,294.69063L434.34546,292.53084L435.54531,291.33096L
				436.50519,292.05089L438.66492,292.05089L439.86477,292.77082L439.86477,293.73072L439.86477,294.45065L441.30458,293.73072L
				443.22434,293.73072L445.62404,295.41056L445.62404,296.61044L446.58392,295.65053L448.26371,295.65053L449.46356,296.85041L
				449.9435,298.53025L450.90338,300.45005L451.62329,301.64993L452.10323,302.60984L451.86326,303.08979L452.3432,303.80972L453.06311,303.56974
				L453.78302,302.84981L454.50293,303.32977L455.22284,303.80972L456.42269,303.56974L457.38257,304.52965L457.1426,306.44946L
				456.18272,306.92941L454.7429,307.16938L455.70278,308.60924L456.18272,309.56915L456.42269,310.28907L457.38257,310.0491L458.34245,310.76903
				L457.38257,311.72893L456.66266,311.72893"/>
		</g>
		<g id="Other">
			<clipPath id="SVG_CP_2">
				<path d="M0,611.93901L0,0L791.90056,0L791.90056,611.93901L0,611.93901z"/>
			</clipPath>
			<path clip-path="url(#SVG_CP_2)" fill="none" stroke="#000000" stroke-width="0.95988" stroke-miterlimit="10" stroke-linecap="round" stroke-linejoin="round" d="
				M3.11961,611.45906L3.11961,2.63974L787.82107,2.63974L787.82107,611.45906L3.11961,611.45906z"/>
		</g>
	</g>
</svg>
