<?xml version="1.0" encoding="utf-8" standalone="no"?>
<!-- Creator: Esri ArcMap 10.5.0.6491 -->
<!DOCTYPE svg PUBLIC "-//W3C//DTD SVG 1.1//EN"  "http://www.w3.org/Graphics/SVG/1.1/DTD/svg11.dtd">
<svg width="792pt" height="612pt" viewBox="0 0 792 612" enable-background="new 0 0 792 612"
	version="1.1" xmlns="http://www.w3.org/2000/svg" xmlns:xlink="http://www.w3.org/1999/xlink" >
	<g id="Capas">
		<g id="NANDAIME">
			<clipPath id="SVG_CP_1">
				<path d="M3.11961,611.45906L3.11961,2.63974L787.82107,2.63974L787.82107,611.45906L3.11961,611.45906z"/>
			</clipPath>
			<path clip-path="url(#SVG_CP_1)" fill="#CCCAFC" fill-rule="evenodd" stroke="none" d="M394.03052,61.43388L394.03052,62.63376
				L393.79055,64.07361L392.83067,65.27349L392.11076,66.47337L391.87079,67.67326L392.35073,69.11311L392.5907,70.55297L392.5907,71.99282
				L392.83067,73.19271L392.83067,74.63256L392.83067,76.07242L392.83067,77.51227L392.5907,78.95213L392.35073,80.39199L392.5907,81.83184
				L392.5907,83.03172L392.11076,84.47158L390.91091,85.43149L389.95103,86.39139L389.23112,87.59127L388.51121,88.79115L387.55133,89.99103
				L386.83142,91.19091L386.59146,92.39079L386.35149,93.83065L386.59146,95.2705L387.07139,96.47039L387.31136,97.91024L387.31136,99.3501
				L386.59146,100.54998L386.11152,101.98983L385.39161,103.18972L384.91167,104.62957L384.43173,105.82945L383.71182,107.02933
				L383.23188,108.46919L382.75194,109.66907L382.75194,111.10893L382.75194,112.54878L383.23188,113.98864L383.47185,115.18852
				L384.19176,116.62838L384.43173,117.82826L384.43173,119.26811L383.95179,121.18792L385.15164,121.66787L386.35149,121.90785
				L388.03127,121.90785L389.23112,121.90785L390.67094,121.90785L392.83067,121.66787L394.51046,121.18792L396.19025,120.94795
				L397.3901,120.94795L399.30986,121.4279L400.02977,122.3878L401.70956,123.58768L403.86929,124.06763L405.54907,125.26751L407.22886,127.18732
				L408.18874,128.3872L409.62856,130.30701L411.06838,131.74687L411.78829,132.94675L413.22811,134.62658L414.18799,136.06644L
				415.14787,137.50629L416.10775,138.70618L418.02751,139.90606L419.46733,140.38601L421.38709,140.62598L422.8269,140.62598L424.50669,141.34591
				L425.94651,141.58589L428.10624,141.82586L429.54606,142.30582L430.50594,143.5057L431.70579,144.70558L433.38558,145.66548L
				434.58543,146.62539L435.78528,147.34531L436.74516,148.30522L437.70504,149.74508L438.42495,150.94496L439.14486,152.38481L
				440.34471,153.82467L441.06461,155.02455L442.26446,155.98445L443.70428,157.18433L444.90413,157.66429L446.34395,158.38421L
				447.5438,159.58409L448.98362,160.544L450.42344,160.30402L452.10323,159.82407L454.7429,159.58409L456.18272,159.34412L457.62254,159.34412
				L459.30232,159.10414L460.98211,158.38421L462.6619,157.42431L463.86175,156.22443L464.82163,154.78457L465.54154,153.58469L
				466.26145,152.62479L467.4613,151.42491L468.42118,150.22503L470.10097,148.06524L470.82088,146.86536L471.78076,145.42551L472.74064,143.74567
				L474.6604,142.06584L475.86025,141.10594L477.30006,139.90606L478.25994,138.94615L479.69976,138.4662L481.37955,138.22622L482.81937,138.22622
				L484.25919,138.70618L485.45904,139.4261L486.17895,140.62598L486.41892,141.82586L486.65889,143.02574L487.61877,144.22563L
				489.05859,144.22563L490.73838,143.5057L492.1782,143.02574L493.61802,142.54579L494.81786,142.54579L496.49765,142.78577L497.93747,143.02574
				L499.37729,142.78577L500.81711,142.30582L502.01696,141.82586L503.45678,141.10594L504.41666,139.90606L505.61651,139.18613
				L506.57639,138.22622L508.25618,136.06644L509.696,134.38661L510.65588,133.4267L512.0957,131.50689L514.49539,130.30701L516.89509,129.34711
				L519.53476,129.34711L521.93446,129.82706L524.8141,130.54699L528.17368,131.98685L531.05331,133.18673L533.45301,134.14663L
				535.37277,135.10653L536.57262,136.06644L537.77247,136.78637L539.21229,137.50629L542.09193,138.22622L544.01169,137.98625L
				546.17142,137.50629L548.81108,137.26632L550.73084,137.02634L551.21078,138.70618L551.93069,140.14603L552.41063,141.34591L
				552.89057,142.78577L553.61048,144.94555L560.56961,162.70378L562.96931,162.22383L564.40913,161.98386L565.60898,161.74388L
				566.80882,161.02395L568.24864,161.02395L569.68846,161.26393L571.12828,161.5039L572.32813,161.74388L573.76795,161.26393L575.20777,161.02395
				L576.64759,160.78397L577.84744,161.26393L579.28726,161.5039L580.72708,161.5039L581.92693,161.5039L583.36675,161.98386L583.60672,163.18374
				L583.36675,164.62359L585.04653,164.38362L585.76644,165.34352L586.24638,166.5434L587.6862,166.78338L589.12602,166.5434L590.32587,165.82347
				L591.52572,165.34352L592.72557,164.62359L594.16539,164.38362L595.60521,164.14364L597.04503,163.90366L598.48485,164.14364
				L599.6847,164.38362L600.88455,165.10354L602.0844,165.82347L603.52421,165.82347L604.96403,165.5835L606.40385,165.5835L607.6037,166.30342
				L608.80355,166.06345L610.24337,166.5434L611.20325,167.50331L612.64307,167.98326L613.60295,168.70319L614.08289,170.14304L
				614.56283,171.34292L614.8028,172.78278L614.8028,174.22264L614.8028,175.66249L614.32286,176.86237L613.12301,177.82228L612.16313,178.5422
				L610.96328,179.50211L610.0034,180.46201L608.80355,181.18194L608.08364,182.6218L607.84367,183.82168L607.36373,185.26154L607.12376,186.70139
				L606.88379,188.14125L606.88379,189.34113L606.88379,190.78098L606.88379,192.22084L607.12376,193.6607L607.6037,195.10055L607.84367,196.30043
				L608.80355,197.50032L609.52346,198.7002L610.24337,199.90008L611.20325,200.85998L612.16313,202.05986L612.64307,203.25974L
				613.60295,204.45962L614.32286,205.6595L615.28274,206.61941L615.76268,208.05926L615.76268,209.25914L615.76268,210.45902L616.96253,210.21905
				L617.68244,211.6589L618.64232,211.89888L620.08214,212.13886L621.52195,211.89888L622.7218,211.17895L623.92165,210.699L625.1215,209.7391
				L626.08138,208.77919L627.28123,207.81929L628.48108,207.09936L629.9209,207.33933L631.12075,206.85938L632.3206,205.89948L633.28048,204.93957
				L634.48033,204.21965L635.68018,203.49972L637.12,203.49972L638.31984,203.01977L639.75966,202.77979L640.71954,203.49972L641.19948,204.6996
				L642.39933,205.41953L643.35921,204.6996L644.55906,203.73969L645.75891,203.01977L646.95876,202.53981L648.39858,201.81988L
				649.59843,201.09996L650.55831,200.38003L651.75816,199.42012L652.95801,198.7002L654.15786,197.98027L655.11774,197.02036L656.55755,196.30043
				L657.7574,195.82048L658.95725,195.34053L660.39707,195.34053L661.83689,195.58051L663.27671,195.82048L664.71653,195.82048L
				666.15635,195.58051L667.3562,195.58051L668.79602,196.06046L669.7559,197.02036L670.47581,198.22024L669.7559,199.42012L670.23584,200.38003
				L671.43569,201.09996L672.63554,201.81988L673.35545,203.01977L675.03523,202.77979L676.23508,203.25974L676.95499,205.17955
				L677.43493,206.37943L678.15484,207.57931L679.35469,208.77919L680.79451,209.25914L681.99436,208.77919L682.4743,209.97907L
				685.35394,211.41893L684.15409,213.57871L681.27445,217.89828L679.83463,223.41773L674.79526,224.37764L674.31532,221.97788L
				667.83614,221.97788L667.3562,223.89768L664.47656,223.17776L661.59692,222.21785L661.83689,227.01737L656.79752,228.45723L656.79752,225.81749
				L654.39783,227.25735L650.31834,229.41713L647.91864,232.29685L641.43945,233.01678L637.83991,234.21666L637.83991,237.33634
				L636.40009,242.37584L633.76042,241.17596L630.88078,241.41594L629.44096,247.17536L626.08138,256.53443L624.40159,261.09398
				L618.40235,262.29386L616.00265,267.57333L617.44247,275.73252L620.08214,281.9719L624.40159,286.77142L622.7218,290.61103L623.92165,295.65053
				L627.5212,306.20948L632.56057,314.84862L639.99963,322.76783L646.47882,333.32678L651.75816,337.64635L653.91789,336.44647L
				655.59768,337.64635L662.07686,341.00601L666.15635,341.00601L668.55605,342.92582L674.31532,346.52546L679.35469,346.52546L
				683.43418,345.32558L688.23358,341.72594L688.47355,343.40577L687.99361,345.56556L687.75364,347.00541L687.2737,348.20529L686.79376,349.64515
				L686.55379,351.32498L685.83388,353.48477L684.874,355.64455L684.63403,357.32439L684.39406,358.52427L684.39406,360.68405L684.39406,362.36388
				L682.23433,362.60386L681.03448,361.64395L679.59466,360.92403L678.87475,362.12391L677.91487,363.56376L676.23508,363.80374
				L674.79526,363.32379L674.31532,361.88393L674.79526,360.2041L675.51517,358.76424L675.99511,357.32439L675.99511,355.64455L
				675.03523,354.44467L673.59542,353.72474L672.1556,354.2047L670.71578,354.92462L669.03599,355.40458L667.83614,356.36448L666.63629,357.32439
				L665.43644,358.52427L664.23659,359.72415L662.79677,360.68405L661.83689,361.88393L660.63704,362.84384L659.67716,364.28369
				L658.71728,365.48357L657.99737,366.92343L657.99737,368.60326L657.99737,370.28309L658.23734,371.96293L657.7574,373.40278L
				656.55755,374.60266L654.87777,374.84264L653.67792,376.04252L652.95801,377.48238L652.2381,378.68226L650.55831,379.16221L649.11849,380.12211
				L648.39858,381.32199L647.67867,382.76185L646.23885,383.72175L644.79903,384.20171L643.11924,384.68166L641.67942,385.16161
				L639.99963,385.40159L638.55981,386.36149L637.35997,387.3214L636.40009,388.52128L635.44021,389.96113L634.48033,391.16101L
				632.80054,391.64096L631.36072,392.12092L629.9209,392.84085L628.72105,393.80075L627.28123,395.00063L625.84141,395.72056L624.40159,395.96053
				L622.96177,396.68046L621.52195,397.64037L620.08214,398.3603L618.88229,399.3202L617.2025,399.3202L615.52271,399.3202L614.08289,398.84025
				L612.4031,398.3603L610.96328,398.60027L609.52346,399.3202L608.08364,400.04013L606.40385,400.76006L604.96403,401.47998L603.52421,402.19991
				L602.32436,402.91984L600.64458,403.15982L598.96479,403.39979L597.52497,403.87975L595.84518,404.3597L594.8853,405.55958L593.92542,406.75946
				L592.72557,408.19931L591.52572,408.43929L589.84593,407.47939L588.40611,407.71936L587.20626,408.91924L586.24638,410.11912
				L585.04653,411.319L583.60672,411.79896L582.40687,411.07903L582.1669,409.39919L581.44699,407.95934L580.24714,407.71936L578.80732,408.67927
				L577.60747,409.63917L576.16765,410.59908L574.72783,411.55898L573.28801,412.03893L571.84819,412.51888L570.1684,412.99884L
				568.48861,413.23881L567.04879,413.95874L565.84895,414.91864L564.6491,415.87855L563.20928,416.83845L561.76946,416.83845L560.80958,418.27831
				L560.80958,419.71817L559.8497,421.398L559.12979,422.59788L558.16991,423.55778L556.97006,424.03774L555.53024,424.03774L554.09042,424.03774
				L552.6506,423.55778L551.21078,423.31781L550.01093,422.83786L548.57111,422.3579L547.1313,422.3579L545.69148,422.3579L544.25166,422.59788
				L543.05181,423.07783L542.3319,424.27771L541.85196,425.47759L541.13205,426.67747L540.41214,427.87735L539.21229,428.59728L
				537.77247,429.07723L536.33265,429.31721L535.1328,429.79716L533.69298,430.03714L532.25316,430.27711L530.81334,430.51709L529.6135,431.47699
				L528.65362,432.19692L527.69374,433.15683L526.49389,434.11673L525.05407,434.35671L523.61425,434.35671L522.4144,435.07664L
				521.45452,436.03654L520.49464,436.99644L519.77473,438.19632L518.81485,439.39621L518.09494,440.35611L517.13506,441.55599L
				516.17518,442.27592L514.73536,442.75587L513.29554,442.99585L511.85573,443.23582L510.41591,442.99585L508.97609,442.99585L
				507.53627,442.99585L506.09645,443.23582L504.8966,443.71577L503.45678,444.19573L502.4969,445.15563L500.57714,446.83546L497.93747,448.27532
				L496.49765,448.5153L494.57789,449.95515L493.13808,450.91506L492.1782,452.11494L490.49841,453.55479L488.57865,454.75467L486.89886,455.23463
				L485.21907,455.95455L483.29931,456.67448L482.09946,457.15444L480.89961,457.63439L479.21982,459.07424L477.54003,459.5542L
				475.38031,460.03415L473.94049,460.27412L472.50067,460.5141L470.58091,460.99405L469.38106,461.71398L467.70127,462.19393L466.02148,462.67388
				L464.58166,462.91386L463.38181,462.91386L460.74214,462.91386L459.06235,463.15384L457.62254,464.11374L456.18272,464.59369
				L454.50293,464.83367L453.30308,465.07365L451.86326,465.07365L450.42344,465.31362L449.22359,465.31362L447.5438,465.79357L
				445.86401,465.79357L444.18422,466.5135L442.26446,467.47341L441.06461,468.19333L439.6248,468.91326L438.66492,469.63319L437.46507,470.83307
				L436.02525,472.03295L434.8254,472.99286L433.38558,474.43271L432.4257,475.39262L430.50594,479.71219L429.30609,480.43211L428.34621,481.632
				L427.86627,482.83188L427.14636,484.03176L426.42645,485.23164L425.46657,486.19154L424.50669,487.39142L423.54681,488.35133
				L422.58694,489.31123L421.38709,490.27113L420.18724,490.99106L419.22736,491.95097L418.50745,493.15085L417.3076,494.11075L
				416.10775,494.5907L414.66793,494.83068L413.22811,495.07066L412.02826,495.55061L410.82841,496.27054L409.86853,497.47042L409.38859,498.6703
				L408.90865,500.11015L408.42871,501.31003L407.46883,502.26994L406.50895,503.22984L405.3091,503.94977L404.34923,504.90968L
				402.90941,505.38963L401.46959,505.38963L400.26974,505.14965L398.82992,504.90968L397.63007,505.6296L396.67019,506.58951L395.47034,507.54941
				L394.27049,508.26934L392.83067,508.26934L391.63082,508.74929L390.43097,509.46922L389.23112,510.42913L388.03127,510.90908
				L386.83142,511.62901L385.39161,512.10896L383.95179,512.10896L382.99191,512.82889L381.79206,513.54881L380.59221,514.50872
				L379.39236,515.22865L377.95254,515.7086L376.51272,515.94857L375.31287,516.6685L374.83293,517.86838L374.11302,519.06826L373.63308,520.26814
				L372.91317,521.46802L372.19326,522.66791L371.71332,524.10776L371.23338,525.30764L370.75344,526.7475L370.2735,527.94738L369.31362,529.14726
				L368.59372,530.10716L368.35375,531.54702L368.35375,532.98688L368.11378,534.42673L367.63384,535.62661L367.1539,537.06647L
				366.43399,538.26635L365.95405,539.46623L364.99417,540.66611L364.27426,541.86599L363.31438,542.8259L362.11453,543.7858L361.39462,544.98568
				L360.67471,546.18556L359.71483,547.14547L358.75495,548.34535L358.03504,549.54523L357.07516,550.50513L356.11528,551.46503
				L354.91543,552.42494L353.71558,552.90489L352.27576,553.62482L351.31588,554.34475L350.11604,555.06468L348.67622,555.54463
				L347.95631,556.74451L347.47637,558.18437L346.75646,559.14427L345.79658,560.34415L344.59673,561.06408L343.63685,562.26396
				L342.67697,563.22386L341.95706,564.42374L340.99718,565.38365L339.79733,566.34355L338.59748,566.58353L337.15766,566.8235L
				335.71784,567.06348L334.51799,567.78341L333.31814,568.50334L331.87833,568.74331L330.67848,569.22326L329.23866,568.74331L
				327.79884,568.50334L326.59899,568.74331L325.15917,568.74331L323.71935,568.74331L322.27953,568.50334L320.83971,568.50334L
				319.39989,568.50334L317.96007,568.74331L316.76022,568.74331L315.56037,568.02338L314.12056,567.78341L312.68074,567.78341L
				311.24092,567.78341L309.8011,568.02338L308.60125,568.50334L307.16143,568.98329L305.72161,569.22326L304.28179,569.46324L303.08194,568.98329
				L302.12206,568.02338L300.92221,567.30346L299.48239,567.06348L298.04257,567.06348L296.60276,567.30346L295.64288,566.34355
				L294.44303,565.38365L293.48315,564.42374L292.76324,563.22386L291.32342,562.50393L290.36354,561.78401L289.40366,560.58413
				L288.20381,560.10417L287.24393,560.8241L286.28405,562.02398L285.0842,562.74391L283.64438,562.98389L282.44453,563.22386L281.00471,563.22386
				L279.56489,563.22386L278.12508,562.50393L276.92523,562.02398L276.20532,560.8241L275.00547,560.10417L273.56565,559.8642L272.12583,560.10417
				L271.16595,561.06408L270.20607,562.26396L269.24619,563.22386L268.28631,564.18377L267.32643,565.38365L266.36655,566.10358
				L265.1667,566.8235L263.72688,567.30346L262.28706,567.54343L261.08722,568.02338L259.6474,568.50334L258.44755,568.26336L257.00773,568.74331
				L256.04785,569.70322L254.60803,570.18317L253.40818,570.66312L252.4483,571.62303L251.48842,572.82291L250.0486,573.30286L248.84875,573.54283
				L247.88887,574.50274L247.16896,575.70262L246.20908,576.42255L245.00923,575.46264L243.80938,576.18257L242.60954,576.9025L
				241.16972,577.14248L239.96987,577.62243L238.53005,577.8624L237.09023,578.10238L235.89038,578.82231L234.9305,579.78221L233.73065,580.50214
				L232.5308,581.22207L231.09098,580.74212L230.1311,579.78221L228.69128,580.02219L227.25146,580.26216L226.05161,580.74212L224.6118,580.74212
				L223.17198,580.50214L221.97213,579.78221L221.25222,578.58233L220.05237,578.10238L218.61255,578.10238L217.65267,577.14248
				L216.93276,575.9426L215.73291,575.22267L214.29309,574.98269L213.09324,574.50274L211.89339,573.78281L211.17348,572.58293L
				209.97363,571.863L208.53381,571.863L207.33396,572.58293L206.13412,572.34295L204.6943,571.863L203.73442,572.58293L202.53457,573.30286
				L201.33472,573.30286L200.61481,572.10298L200.13487,570.9031L199.65493,569.46324L198.93502,568.26336L197.97514,567.30346L
				196.53532,566.8235L195.33547,566.34355L193.89565,565.8636L192.6958,565.38365L191.01601,564.66372L164.37936,556.98448L165.57921,556.02458
				L166.53909,555.06468L167.49897,553.8648L167.97891,551.46503L167.259,550.02518L166.53909,549.06527L166.05915,548.10537L167.259,547.14547
				L168.93879,547.14547L167.97891,545.22566L166.29912,544.7457L165.09927,544.50573L163.41948,544.26575L161.73969,544.50573L
				162.21963,542.10597L161.73969,539.94618L160.0599,540.66611L158.38011,538.7463L158.38011,536.58652L158.14014,534.90669L157.42023,532.98688
				L155.98041,531.06707L155.98041,529.38724L155.74044,527.46743L154.30062,526.50752L152.1409,526.26755L150.94105,525.30764L
				151.18102,524.10776L151.90093,523.14786L151.90093,521.708L151.66096,519.06826L149.7412,518.58831L147.82144,517.38843L146.14165,516.6685
				L144.70183,516.18855L143.26201,515.46862L141.82219,514.74869L140.86231,513.30884L139.90243,511.62901L137.7427,511.14905L
				135.82294,510.42913L133.66322,508.74929L132.70334,507.30944L131.98343,505.86958L131.50349,503.94977L131.02355,502.74989L
				129.58373,501.31003L128.86382,500.11015L128.14391,498.43032L127.66397,497.23044L127.18403,496.03056L126.94406,493.87078L
				126.22415,492.19094L125.26427,490.75109L123.82445,488.83128L121.66472,487.39142L120.70484,486.19154L119.98493,485.23164L
				119.74496,484.03176L120.2249,481.87197L120.70484,480.43211L121.18478,479.23223L121.90469,478.03235L122.14466,476.35252L121.66472,475.15264
				L120.94481,473.95276L120.2249,472.5129L119.74496,471.31302L119.02505,470.11314L118.30514,468.67329L117.8252,467.47341L117.1053,466.27353
				L116.62536,465.07365L115.90545,463.63379L115.18554,462.43391L114.7056,461.23403L113.98569,459.79417L113.26578,458.59429L
				112.78584,457.39441L112.06593,456.19453L111.58599,454.75467L110.86608,453.55479L110.14617,452.35491L109.66623,450.91506L
				108.94632,449.71518L108.46638,448.5153L107.74647,447.31542L107.02656,445.87556L106.30665,444.4357L107.5065,443.71577L108.70635,442.99585
				L109.9062,442.27592L111.10605,441.55599L112.3059,440.83606L113.50575,440.11613L114.7056,439.39621L116.14542,438.67628L117.34527,437.95635
				L118.54511,437.23642L119.74496,436.51649L120.94481,435.79656L122.14466,435.07664L123.34451,434.35671L124.54436,433.63678
				L125.74421,432.91685L126.94406,432.19692L128.14391,431.23702L129.34376,430.51709L130.54361,429.79716L131.98343,429.07723
				L133.18328,428.35731L134.38313,427.63738L117.8252,412.75886L117.8252,411.319L117.8252,409.87915L117.34527,408.43929L116.62536,407.23941
				L116.38539,405.79955L116.14542,404.3597L115.90545,402.91984L115.42551,401.71996L114.94557,400.2801L114.94557,398.84025L114.7056,397.40039
				L115.18554,396.20051L116.14542,395.00063L117.34527,394.52068L118.30514,393.56077L119.26502,392.36089L119.50499,391.16101
				L119.50499,389.72116L119.74496,388.2813L120.2249,387.08142L120.94481,385.88154L120.94481,384.44168L120.94481,383.00183L120.2249,381.80195
				L119.02505,380.84204L118.30514,379.64216L117.8252,378.44228L117.58523,377.00242L117.58523,375.56257L117.8252,374.12271L117.8252,372.68285
				L118.06517,371.243L118.06517,370.04312L118.06517,368.60326L117.8252,367.1634L116.86533,365.96352L116.14542,364.76364L115.42551,363.56376
				L114.94557,362.36388L114.22566,361.164L113.50575,359.72415L112.78584,358.52427L112.3059,357.32439L111.82596,355.88453L112.06593,354.44467
				L112.54587,353.24479L113.26578,352.04491L113.50575,350.60506L113.50575,349.1652L113.74572,347.72534L113.74572,346.28549L
				113.74572,344.84563L114.22566,343.64575L115.18554,342.68584L116.14542,341.48596L116.62536,340.28608L116.86533,338.84623L
				117.1053,337.40637L117.1053,335.96651L117.34527,334.52666L117.8252,333.32678L118.30514,332.1269L119.02505,330.68704L119.50499,329.48716
				L119.98493,328.0473L119.98493,326.60745L119.98493,325.16759L119.74496,323.96771L119.74496,322.52785L119.98493,321.088L120.46487,319.64814
				L120.70484,318.44826L121.18478,317.0084L122.14466,316.0485L123.10454,314.84862L123.82445,313.64874L124.30439,312.20888L125.0243,311.009
				L125.98418,310.28907L126.94406,309.08919L127.66397,307.88931L128.38388,306.68943L129.8237,306.20948L130.54361,305.0096L131.26352,303.80972
				L131.98343,302.60984L132.94331,301.64993L134.14316,302.12989L135.10304,303.32977L135.82294,304.52965L136.54285,305.72953
				L137.26276,306.92941L138.46261,307.64934L139.90243,308.12929L141.10228,307.88931L142.5421,307.16938L143.74195,306.44946L
				144.9418,305.72953L146.14165,305.24958L147.58147,304.76962L148.78132,304.0497L149.7412,303.08979L150.70108,302.12989L151.66096,301.16998
				L152.62084,301.88991L153.58071,303.08979L154.30062,304.28967L155.50047,305.24958L156.70032,305.72953L158.14014,305.48955
				L159.57996,305.24958L161.01978,305.48955L162.21963,305.9695L163.65945,306.20948L165.09927,305.48955L166.05915,304.76962L
				166.77906,303.56974L167.73894,302.36986L168.93879,301.88991L169.6587,303.08979L170.61858,304.0497L171.57845,305.0096L173.01827,305.48955
				L174.21812,305.0096L175.178,304.0497L176.37785,303.32977L177.81767,302.84981L179.25749,302.84981L180.21737,303.80972L180.21737,305.24958
				L180.21737,306.68943L181.41722,307.40936L182.85704,307.16938L184.05689,306.44946L185.25674,305.72953L186.21662,304.52965
				L187.1765,303.56974L188.13638,302.60984L189.33623,301.64993L190.53607,301.40996L191.73592,301.88991L192.6958,303.08979L193.65568,304.0497
				L194.85553,304.76962L196.05538,304.0497L197.25523,303.08979L198.45508,302.36986L199.65493,301.88991L201.09475,301.64993L
				202.53457,301.64993L203.73442,300.93001L205.17424,300.45005L206.13412,299.49015L207.57393,299.0102L209.25372,298.77022L209.01375,297.33037
				L208.05387,296.37046L206.61406,296.37046L205.41421,295.89051L204.93427,294.45065L204.6943,293.0108L204.6943,291.81092L204.45433,290.37106
				L203.01451,289.41115L203.73442,288.21127L204.45433,287.01139L205.17424,285.81151L204.93427,284.61163L204.93427,283.17178
				L204.93427,281.73192L204.6943,280.29206L204.45433,278.85221L204.21436,277.41235L203.97439,276.21247L203.73442,274.77261L
				203.49445,273.33276L203.25448,271.8929L203.01451,270.45304L202.77454,269.25316L202.53457,267.81331L202.53457,266.37345L201.57469,265.41355
				L200.61481,264.45364L201.09475,263.01379L201.81466,261.8139L201.57469,260.37405L200.85478,259.41414L199.65493,258.69422L
				198.21511,258.45424L196.77529,257.97429L195.81541,257.01438L195.0955,255.8145L194.61556,254.37465L193.89565,253.17477L192.93577,252.21486
				L191.49595,251.97489L190.2961,251.49493L188.85629,251.25496L187.65644,250.53503L187.1765,249.33515L186.45659,248.13527L185.49671,246.93539
				L184.29686,246.21546L183.33698,245.49553L182.61707,244.29565L181.41722,243.33575L180.21737,242.37584L218.37258,194.14065
				L218.61255,192.70079L218.61255,191.26094L219.09249,189.82108L219.09249,188.38122L219.33246,187.18134L218.61255,185.98146
				L217.89264,184.54161L217.17273,183.34173L216.45282,182.14185L215.97288,180.94197L215.25297,179.50211L214.53306,178.30223
				L214.05312,177.10235L213.57318,175.66249L213.09324,174.46261L212.6133,173.02275L212.13336,171.82287L211.65342,170.38302L
				211.41345,169.18314L211.17348,167.74328L210.93351,166.30342L210.93351,164.86357L210.45357,163.66369L209.49369,162.46381L
				208.77378,161.26393L208.29384,160.06405L208.29384,158.62419L208.29384,157.18433L208.29384,155.74448L208.05387,154.30462L
				208.05387,152.86476L207.8139,151.66488L207.33396,150.22503L206.85403,149.02515L206.13412,147.82527L204.93427,146.86536L203.49445,146.62539
				L202.2946,146.14543L201.09475,145.42551L200.85478,143.98565L201.57469,142.78577L202.05463,141.34591L202.77454,140.14603L
				203.49445,138.94615L203.97439,137.74627L204.6943,136.30641L205.17424,135.10653L205.65418,133.66668L205.89415,132.4668L205.65418,131.02694
				L205.41421,129.58708L204.6943,128.3872L203.97439,127.18732L203.25448,125.98744L202.77454,124.54759L201.81466,123.58768L200.85478,122.62778
				L199.8949,121.4279L198.69505,120.46799L197.73517,119.50809L196.77529,118.54818L195.81541,117.58828L194.61556,116.62838L193.89565,115.66847
				L193.17574,114.22862L192.6958,113.02873L191.73592,111.82885L190.53607,111.3489L190.05613,109.90905L189.81616,108.46919L189.57619,107.26931
				L188.85629,106.06943L187.65644,105.10952L186.21662,104.62957L185.01677,104.14962L183.81692,103.42969L182.61707,102.70976
				L181.41722,101.98983L179.9774,100.31L201.33472,96.23041L202.77454,94.79055L202.77454,93.3507L203.01451,92.15082L203.25448,90.71096
				L203.25448,89.2711L203.49445,87.83125L203.49445,86.39139L203.49445,84.95153L203.49445,83.51168L203.49445,82.07182L203.49445,80.87194
				L203.49445,79.43208L203.25448,77.99223L203.01451,76.55237L202.53457,75.11251L202.2946,73.91263L201.81466,72.47278L201.09475,71.2729
				L200.37484,70.07302L199.8949,68.63316L199.65493,67.43328L199.17499,65.99342L198.93502,64.55357L199.17499,63.11371L199.17499,61.67385
				L199.17499,60.234L199.65493,59.03412L199.65493,57.59426L231.33095,58.31419L232.5308,58.79414L233.97062,58.79414L235.17047,59.27409
				L236.61029,60.234L238.05011,60.71395L239.48993,61.1939L240.68978,61.91383L242.36957,62.39378L243.56941,62.63376L244.52929,63.59366
				L246.20908,63.35369L247.6489,62.87373L248.84875,62.39378L250.0486,61.67385L251.24845,60.71395L252.20833,59.99402L253.40818,58.79414
				L254.12809,57.83424L255.32794,56.39438L256.04785,55.43448L257.2477,54.23459L257.96761,53.27469L258.68752,52.07481L259.6474,51.11491
				L269.9661,44.63555L271.16595,59.99402L309.8011,110.389L317.7201,88.79115L318.20004,87.59127L318.44001,85.67146L318.91995,84.2316
				L319.39989,83.03172L319.63986,81.83184L320.1198,80.39199L320.35977,78.71216L320.59974,77.2723L320.83971,75.59247L321.31965,74.15261
				L322.5195,72.71275L324.19929,72.47278L325.39914,71.99282L326.83896,71.75285L328.27878,71.2729L329.95857,70.79294L331.39839,70.31299
				L333.07817,70.07302L334.27802,69.83304L335.71784,70.07302L336.91769,70.79294L338.35751,70.79294L340.0373,70.07302L340.99718,69.35309
				L342.67697,68.39318L343.87682,67.43328L346.51649,65.99342L347.95631,65.03352L348.91619,64.55357L350.11604,63.59366L351.07591,62.87373
				L352.27576,62.39378L353.71558,61.67385L355.87531,60.71395L357.07516,59.99402L358.27501,60.47397L358.75495,61.91383L359.9548,62.63376
				L363.31438,60.95393L364.99417,60.47397L366.19402,59.75404L367.63384,59.03412L368.83369,58.79414L369.55359,57.59426L370.2735,56.63436
				L371.23338,55.1945L372.6732,54.47457L374.11302,53.75464L375.31287,53.03471L376.51272,52.55476L377.71257,52.07481L379.15239,51.11491
				L380.83218,50.63495L382.03203,49.91503L382.99191,48.47517L384.43173,48.23519L385.63158,48.23519L386.83142,47.99522L388.27124,47.51526
				L389.95103,47.03531L391.39085,46.31538L392.5907,45.83543L392.83067,44.63555L392.83067,42.95572L392.35073,41.51586L392.35073,40.07601
				L392.83067,38.63615L393.79055,37.67625L395.95028,36.47636L396.19025,38.1562L403.14938,45.59546L401.46959,45.83543L400.26974,46.31538
				L398.82992,46.55536L397.3901,47.03531L396.43022,47.99522L395.47034,48.95512L394.9904,50.155L394.27049,51.59486L394.03052,53.03471
				L394.03052,54.23459L393.79055,55.67445L393.55058,57.11431L393.55058,58.55416L393.79055,59.99402L394.03052,61.43388z"/>
			<path clip-path="url(#SVG_CP_1)" fill="none" stroke="#6E6E6E" stroke-width="0.47994" stroke-miterlimit="10" stroke-linecap="round" stroke-linejoin="round" d="
				M394.03052,61.43388L394.03052,62.63376L393.79055,64.07361L392.83067,65.27349L392.11076,66.47337L391.87079,67.67326L392.35073,69.11311
				L392.5907,70.55297L392.5907,71.99282L392.83067,73.19271L392.83067,74.63256L392.83067,76.07242L392.83067,77.51227L392.5907,78.95213
				L392.35073,80.39199L392.5907,81.83184L392.5907,83.03172L392.11076,84.47158L390.91091,85.43149L389.95103,86.39139L389.23112,87.59127
				L388.51121,88.79115L387.55133,89.99103L386.83142,91.19091L386.59146,92.39079L386.35149,93.83065L386.59146,95.2705L387.07139,96.47039
				L387.31136,97.91024L387.31136,99.3501L386.59146,100.54998L386.11152,101.98983L385.39161,103.18972L384.91167,104.62957L384.43173,105.82945
				L383.71182,107.02933L383.23188,108.46919L382.75194,109.66907L382.75194,111.10893L382.75194,112.54878L383.23188,113.98864
				L383.47185,115.18852L384.19176,116.62838L384.43173,117.82826L384.43173,119.26811L383.95179,121.18792L385.15164,121.66787
				L386.35149,121.90785L388.03127,121.90785L389.23112,121.90785L390.67094,121.90785L392.83067,121.66787L394.51046,121.18792
				L396.19025,120.94795L397.3901,120.94795L399.30986,121.4279L400.02977,122.3878L401.70956,123.58768L403.86929,124.06763L405.54907,125.26751
				L407.22886,127.18732L408.18874,128.3872L409.62856,130.30701L411.06838,131.74687L411.78829,132.94675L413.22811,134.62658L
				414.18799,136.06644L415.14787,137.50629L416.10775,138.70618L418.02751,139.90606L419.46733,140.38601L421.38709,140.62598L
				422.8269,140.62598L424.50669,141.34591L425.94651,141.58589L428.10624,141.82586L429.54606,142.30582L430.50594,143.5057L431.70579,144.70558
				L433.38558,145.66548L434.58543,146.62539L435.78528,147.34531L436.74516,148.30522L437.70504,149.74508L438.42495,150.94496
				L439.14486,152.38481L440.34471,153.82467L441.06461,155.02455L442.26446,155.98445L443.70428,157.18433L444.90413,157.66429
				L446.34395,158.38421L447.5438,159.58409L448.98362,160.544L450.42344,160.30402L452.10323,159.82407L454.7429,159.58409L456.18272,159.34412
				L457.62254,159.34412L459.30232,159.10414L460.98211,158.38421L462.6619,157.42431L463.86175,156.22443L464.82163,154.78457L
				465.54154,153.58469L466.26145,152.62479L467.4613,151.42491L468.42118,150.22503L470.10097,148.06524L470.82088,146.86536L471.78076,145.42551
				L472.74064,143.74567L474.6604,142.06584L475.86025,141.10594L477.30006,139.90606L478.25994,138.94615L479.69976,138.4662L481.37955,138.22622
				L482.81937,138.22622L484.25919,138.70618L485.45904,139.4261L486.17895,140.62598L486.41892,141.82586L486.65889,143.02574L
				487.61877,144.22563L489.05859,144.22563L490.73838,143.5057L492.1782,143.02574L493.61802,142.54579L494.81786,142.54579L496.49765,142.78577
				L497.93747,143.02574L499.37729,142.78577L500.81711,142.30582L502.01696,141.82586L503.45678,141.10594L504.41666,139.90606
				L505.61651,139.18613L506.57639,138.22622L508.25618,136.06644L509.696,134.38661L510.65588,133.4267L512.0957,131.50689L514.49539,130.30701
				L516.89509,129.34711L519.53476,129.34711L521.93446,129.82706L524.8141,130.54699L528.17368,131.98685L531.05331,133.18673L
				533.45301,134.14663L535.37277,135.10653L536.57262,136.06644L537.77247,136.78637L539.21229,137.50629L542.09193,138.22622L
				544.01169,137.98625L546.17142,137.50629L548.81108,137.26632L550.73084,137.02634L551.21078,138.70618L551.93069,140.14603L
				552.41063,141.34591L552.89057,142.78577L553.61048,144.94555L560.56961,162.70378L562.96931,162.22383L564.40913,161.98386L
				565.60898,161.74388L566.80882,161.02395L568.24864,161.02395L569.68846,161.26393L571.12828,161.5039L572.32813,161.74388L573.76795,161.26393
				L575.20777,161.02395L576.64759,160.78397L577.84744,161.26393L579.28726,161.5039L580.72708,161.5039L581.92693,161.5039L583.36675,161.98386
				L583.60672,163.18374L583.36675,164.62359L585.04653,164.38362L585.76644,165.34352L586.24638,166.5434L587.6862,166.78338L589.12602,166.5434
				L590.32587,165.82347L591.52572,165.34352L592.72557,164.62359L594.16539,164.38362L595.60521,164.14364L597.04503,163.90366
				L598.48485,164.14364L599.6847,164.38362L600.88455,165.10354L602.0844,165.82347L603.52421,165.82347L604.96403,165.5835L606.40385,165.5835
				L607.6037,166.30342L608.80355,166.06345L610.24337,166.5434L611.20325,167.50331L612.64307,167.98326L613.60295,168.70319L614.08289,170.14304
				L614.56283,171.34292L614.8028,172.78278L614.8028,174.22264L614.8028,175.66249L614.32286,176.86237L613.12301,177.82228L612.16313,178.5422
				L610.96328,179.50211L610.0034,180.46201L608.80355,181.18194L608.08364,182.6218L607.84367,183.82168L607.36373,185.26154L607.12376,186.70139
				L606.88379,188.14125L606.88379,189.34113L606.88379,190.78098L606.88379,192.22084L607.12376,193.6607L607.6037,195.10055L607.84367,196.30043
				L608.80355,197.50032L609.52346,198.7002L610.24337,199.90008L611.20325,200.85998L612.16313,202.05986L612.64307,203.25974L
				613.60295,204.45962L614.32286,205.6595L615.28274,206.61941L615.76268,208.05926L615.76268,209.25914L615.76268,210.45902L616.96253,210.21905
				L617.68244,211.6589L618.64232,211.89888L620.08214,212.13886L621.52195,211.89888L622.7218,211.17895L623.92165,210.699L625.1215,209.7391
				L626.08138,208.77919L627.28123,207.81929L628.48108,207.09936L629.9209,207.33933L631.12075,206.85938L632.3206,205.89948L633.28048,204.93957
				L634.48033,204.21965L635.68018,203.49972L637.12,203.49972L638.31984,203.01977L639.75966,202.77979L640.71954,203.49972L641.19948,204.6996
				L642.39933,205.41953L643.35921,204.6996L644.55906,203.73969L645.75891,203.01977L646.95876,202.53981L648.39858,201.81988L
				649.59843,201.09996L650.55831,200.38003L651.75816,199.42012L652.95801,198.7002L654.15786,197.98027L655.11774,197.02036L656.55755,196.30043
				L657.7574,195.82048L658.95725,195.34053L660.39707,195.34053L661.83689,195.58051L663.27671,195.82048L664.71653,195.82048L
				666.15635,195.58051L667.3562,195.58051L668.79602,196.06046L669.7559,197.02036L670.47581,198.22024L669.7559,199.42012L670.23584,200.38003
				L671.43569,201.09996L672.63554,201.81988L673.35545,203.01977L675.03523,202.77979L676.23508,203.25974L676.95499,205.17955
				L677.43493,206.37943L678.15484,207.57931L679.35469,208.77919L680.79451,209.25914L681.99436,208.77919L682.4743,209.97907L
				685.35394,211.41893L684.15409,213.57871L681.27445,217.89828L679.83463,223.41773L674.79526,224.37764L674.31532,221.97788L
				667.83614,221.97788L667.3562,223.89768L664.47656,223.17776L661.59692,222.21785L661.83689,227.01737L656.79752,228.45723L656.79752,225.81749
				L654.39783,227.25735L650.31834,229.41713L647.91864,232.29685L641.43945,233.01678L637.83991,234.21666L637.83991,237.33634
				L636.40009,242.37584L633.76042,241.17596L630.88078,241.41594L629.44096,247.17536L626.08138,256.53443L624.40159,261.09398
				L618.40235,262.29386L616.00265,267.57333L617.44247,275.73252L620.08214,281.9719L624.40159,286.77142L622.7218,290.61103L623.92165,295.65053
				L627.5212,306.20948L632.56057,314.84862L639.99963,322.76783L646.47882,333.32678L651.75816,337.64635L653.91789,336.44647L
				655.59768,337.64635L662.07686,341.00601L666.15635,341.00601L668.55605,342.92582L674.31532,346.52546L679.35469,346.52546L
				683.43418,345.32558L688.23358,341.72594L688.47355,343.40577L687.99361,345.56556L687.75364,347.00541L687.2737,348.20529L686.79376,349.64515
				L686.55379,351.32498L685.83388,353.48477L684.874,355.64455L684.63403,357.32439L684.39406,358.52427L684.39406,360.68405L684.39406,362.36388
				L682.23433,362.60386L681.03448,361.64395L679.59466,360.92403L678.87475,362.12391L677.91487,363.56376L676.23508,363.80374
				L674.79526,363.32379L674.31532,361.88393L674.79526,360.2041L675.51517,358.76424L675.99511,357.32439L675.99511,355.64455L
				675.03523,354.44467L673.59542,353.72474L672.1556,354.2047L670.71578,354.92462L669.03599,355.40458L667.83614,356.36448L666.63629,357.32439
				L665.43644,358.52427L664.23659,359.72415L662.79677,360.68405L661.83689,361.88393L660.63704,362.84384L659.67716,364.28369
				L658.71728,365.48357L657.99737,366.92343L657.99737,368.60326L657.99737,370.28309L658.23734,371.96293L657.7574,373.40278L
				656.55755,374.60266L654.87777,374.84264L653.67792,376.04252L652.95801,377.48238L652.2381,378.68226L650.55831,379.16221L649.11849,380.12211
				L648.39858,381.32199L647.67867,382.76185L646.23885,383.72175L644.79903,384.20171L643.11924,384.68166L641.67942,385.16161
				L639.99963,385.40159L638.55981,386.36149L637.35997,387.3214L636.40009,388.52128L635.44021,389.96113L634.48033,391.16101L
				632.80054,391.64096L631.36072,392.12092L629.9209,392.84085L628.72105,393.80075L627.28123,395.00063L625.84141,395.72056L624.40159,395.96053
				L622.96177,396.68046L621.52195,397.64037L620.08214,398.3603L618.88229,399.3202L617.2025,399.3202L615.52271,399.3202L614.08289,398.84025
				L612.4031,398.3603L610.96328,398.60027L609.52346,399.3202L608.08364,400.04013L606.40385,400.76006L604.96403,401.47998L603.52421,402.19991
				L602.32436,402.91984L600.64458,403.15982L598.96479,403.39979L597.52497,403.87975L595.84518,404.3597L594.8853,405.55958L593.92542,406.75946
				L592.72557,408.19931L591.52572,408.43929L589.84593,407.47939L588.40611,407.71936L587.20626,408.91924L586.24638,410.11912
				L585.04653,411.319L583.60672,411.79896L582.40687,411.07903L582.1669,409.39919L581.44699,407.95934L580.24714,407.71936L578.80732,408.67927
				L577.60747,409.63917L576.16765,410.59908L574.72783,411.55898L573.28801,412.03893L571.84819,412.51888L570.1684,412.99884L
				568.48861,413.23881L567.04879,413.95874L565.84895,414.91864L564.6491,415.87855L563.20928,416.83845L561.76946,416.83845L560.80958,418.27831
				L560.80958,419.71817L559.8497,421.398L559.12979,422.59788L558.16991,423.55778L556.97006,424.03774L555.53024,424.03774L554.09042,424.03774
				L552.6506,423.55778L551.21078,423.31781L550.01093,422.83786L548.57111,422.3579L547.1313,422.3579L545.69148,422.3579L544.25166,422.59788
				L543.05181,423.07783L542.3319,424.27771L541.85196,425.47759L541.13205,426.67747L540.41214,427.87735L539.21229,428.59728L
				537.77247,429.07723L536.33265,429.31721L535.1328,429.79716L533.69298,430.03714L532.25316,430.27711L530.81334,430.51709L529.6135,431.47699
				L528.65362,432.19692L527.69374,433.15683L526.49389,434.11673L525.05407,434.35671L523.61425,434.35671L522.4144,435.07664L
				521.45452,436.03654L520.49464,436.99644L519.77473,438.19632L518.81485,439.39621L518.09494,440.35611L517.13506,441.55599L
				516.17518,442.27592L514.73536,442.75587L513.29554,442.99585L511.85573,443.23582L510.41591,442.99585L508.97609,442.99585L
				507.53627,442.99585L506.09645,443.23582L504.8966,443.71577L503.45678,444.19573L502.4969,445.15563L500.57714,446.83546L497.93747,448.27532
				L496.49765,448.5153L494.57789,449.95515L493.13808,450.91506L492.1782,452.11494L490.49841,453.55479L488.57865,454.75467L486.89886,455.23463
				L485.21907,455.95455L483.29931,456.67448L482.09946,457.15444L480.89961,457.63439L479.21982,459.07424L477.54003,459.5542L
				475.38031,460.03415L473.94049,460.27412L472.50067,460.5141L470.58091,460.99405L469.38106,461.71398L467.70127,462.19393L466.02148,462.67388
				L464.58166,462.91386L463.38181,462.91386L460.74214,462.91386L459.06235,463.15384L457.62254,464.11374L456.18272,464.59369
				L454.50293,464.83367L453.30308,465.07365L451.86326,465.07365L450.42344,465.31362L449.22359,465.31362L447.5438,465.79357L
				445.86401,465.79357L444.18422,466.5135L442.26446,467.47341L441.06461,468.19333L439.6248,468.91326L438.66492,469.63319L437.46507,470.83307
				L436.02525,472.03295L434.8254,472.99286L433.38558,474.43271L432.4257,475.39262L430.50594,479.71219L429.30609,480.43211L428.34621,481.632
				L427.86627,482.83188L427.14636,484.03176L426.42645,485.23164L425.46657,486.19154L424.50669,487.39142L423.54681,488.35133
				L422.58694,489.31123L421.38709,490.27113L420.18724,490.99106L419.22736,491.95097L418.50745,493.15085L417.3076,494.11075L
				416.10775,494.5907L414.66793,494.83068L413.22811,495.07066L412.02826,495.55061L410.82841,496.27054L409.86853,497.47042L409.38859,498.6703
				L408.90865,500.11015L408.42871,501.31003L407.46883,502.26994L406.50895,503.22984L405.3091,503.94977L404.34923,504.90968L
				402.90941,505.38963L401.46959,505.38963L400.26974,505.14965L398.82992,504.90968L397.63007,505.6296L396.67019,506.58951L395.47034,507.54941
				L394.27049,508.26934L392.83067,508.26934L391.63082,508.74929L390.43097,509.46922L389.23112,510.42913L388.03127,510.90908
				L386.83142,511.62901L385.39161,512.10896L383.95179,512.10896L382.99191,512.82889L381.79206,513.54881L380.59221,514.50872
				L379.39236,515.22865L377.95254,515.7086L376.51272,515.94857L375.31287,516.6685L374.83293,517.86838L374.11302,519.06826L373.63308,520.26814
				L372.91317,521.46802L372.19326,522.66791L371.71332,524.10776L371.23338,525.30764L370.75344,526.7475L370.2735,527.94738L369.31362,529.14726
				L368.59372,530.10716L368.35375,531.54702L368.35375,532.98688L368.11378,534.42673L367.63384,535.62661L367.1539,537.06647L
				366.43399,538.26635L365.95405,539.46623L364.99417,540.66611L364.27426,541.86599L363.31438,542.8259L362.11453,543.7858L361.39462,544.98568
				L360.67471,546.18556L359.71483,547.14547L358.75495,548.34535L358.03504,549.54523L357.07516,550.50513L356.11528,551.46503
				L354.91543,552.42494L353.71558,552.90489L352.27576,553.62482L351.31588,554.34475L350.11604,555.06468L348.67622,555.54463
				L347.95631,556.74451L347.47637,558.18437L346.75646,559.14427L345.79658,560.34415L344.59673,561.06408L343.63685,562.26396
				L342.67697,563.22386L341.95706,564.42374L340.99718,565.38365L339.79733,566.34355L338.59748,566.58353L337.15766,566.8235L
				335.71784,567.06348L334.51799,567.78341L333.31814,568.50334L331.87833,568.74331L330.67848,569.22326L329.23866,568.74331L
				327.79884,568.50334L326.59899,568.74331L325.15917,568.74331L323.71935,568.74331L322.27953,568.50334L320.83971,568.50334L
				319.39989,568.50334L317.96007,568.74331L316.76022,568.74331L315.56037,568.02338L314.12056,567.78341L312.68074,567.78341L
				311.24092,567.78341L309.8011,568.02338L308.60125,568.50334L307.16143,568.98329L305.72161,569.22326L304.28179,569.46324L303.08194,568.98329
				L302.12206,568.02338L300.92221,567.30346L299.48239,567.06348L298.04257,567.06348L296.60276,567.30346L295.64288,566.34355
				L294.44303,565.38365L293.48315,564.42374L292.76324,563.22386L291.32342,562.50393L290.36354,561.78401L289.40366,560.58413
				L288.20381,560.10417L287.24393,560.8241L286.28405,562.02398L285.0842,562.74391L283.64438,562.98389L282.44453,563.22386L281.00471,563.22386
				L279.56489,563.22386L278.12508,562.50393L276.92523,562.02398L276.20532,560.8241L275.00547,560.10417L273.56565,559.8642L272.12583,560.10417
				L271.16595,561.06408L270.20607,562.26396L269.24619,563.22386L268.28631,564.18377L267.32643,565.38365L266.36655,566.10358
				L265.1667,566.8235L263.72688,567.30346L262.28706,567.54343L261.08722,568.02338L259.6474,568.50334L258.44755,568.26336L257.00773,568.74331
				L256.04785,569.70322L254.60803,570.18317L253.40818,570.66312L252.4483,571.62303L251.48842,572.82291L250.0486,573.30286L248.84875,573.54283
				L247.88887,574.50274L247.16896,575.70262L246.20908,576.42255L245.00923,575.46264L243.80938,576.18257L242.60954,576.9025L
				241.16972,577.14248L239.96987,577.62243L238.53005,577.8624L237.09023,578.10238L235.89038,578.82231L234.9305,579.78221L233.73065,580.50214
				L232.5308,581.22207L231.09098,580.74212L230.1311,579.78221L228.69128,580.02219L227.25146,580.26216L226.05161,580.74212L224.6118,580.74212
				L223.17198,580.50214L221.97213,579.78221L221.25222,578.58233L220.05237,578.10238L218.61255,578.10238L217.65267,577.14248
				L216.93276,575.9426L215.73291,575.22267L214.29309,574.98269L213.09324,574.50274L211.89339,573.78281L211.17348,572.58293L
				209.97363,571.863L208.53381,571.863L207.33396,572.58293L206.13412,572.34295L204.6943,571.863L203.73442,572.58293L202.53457,573.30286
				L201.33472,573.30286L200.61481,572.10298L200.13487,570.9031L199.65493,569.46324L198.93502,568.26336L197.97514,567.30346L
				196.53532,566.8235L195.33547,566.34355L193.89565,565.8636L192.6958,565.38365L191.01601,564.66372L164.37936,556.98448L165.57921,556.02458
				L166.53909,555.06468L167.49897,553.8648L167.97891,551.46503L167.259,550.02518L166.53909,549.06527L166.05915,548.10537L167.259,547.14547
				L168.93879,547.14547L167.97891,545.22566L166.29912,544.7457L165.09927,544.50573L163.41948,544.26575L161.73969,544.50573L
				162.21963,542.10597L161.73969,539.94618L160.0599,540.66611L158.38011,538.7463L158.38011,536.58652L158.14014,534.90669L157.42023,532.98688
				L155.98041,531.06707L155.98041,529.38724L155.74044,527.46743L154.30062,526.50752L152.1409,526.26755L150.94105,525.30764L
				151.18102,524.10776L151.90093,523.14786L151.90093,521.708L151.66096,519.06826L149.7412,518.58831L147.82144,517.38843L146.14165,516.6685
				L144.70183,516.18855L143.26201,515.46862L141.82219,514.74869L140.86231,513.30884L139.90243,511.62901L137.7427,511.14905L
				135.82294,510.42913L133.66322,508.74929L132.70334,507.30944L131.98343,505.86958L131.50349,503.94977L131.02355,502.74989L
				129.58373,501.31003L128.86382,500.11015L128.14391,498.43032L127.66397,497.23044L127.18403,496.03056L126.94406,493.87078L
				126.22415,492.19094L125.26427,490.75109L123.82445,488.83128L121.66472,487.39142L120.70484,486.19154L119.98493,485.23164L
				119.74496,484.03176L120.2249,481.87197L120.70484,480.43211L121.18478,479.23223L121.90469,478.03235L122.14466,476.35252L121.66472,475.15264
				L120.94481,473.95276L120.2249,472.5129L119.74496,471.31302L119.02505,470.11314L118.30514,468.67329L117.8252,467.47341L117.1053,466.27353
				L116.62536,465.07365L115.90545,463.63379L115.18554,462.43391L114.7056,461.23403L113.98569,459.79417L113.26578,458.59429L
				112.78584,457.39441L112.06593,456.19453L111.58599,454.75467L110.86608,453.55479L110.14617,452.35491L109.66623,450.91506L
				108.94632,449.71518L108.46638,448.5153L107.74647,447.31542L107.02656,445.87556L106.30665,444.4357L107.5065,443.71577L108.70635,442.99585
				L109.9062,442.27592L111.10605,441.55599L112.3059,440.83606L113.50575,440.11613L114.7056,439.39621L116.14542,438.67628L117.34527,437.95635
				L118.54511,437.23642L119.74496,436.51649L120.94481,435.79656L122.14466,435.07664L123.34451,434.35671L124.54436,433.63678
				L125.74421,432.91685L126.94406,432.19692L128.14391,431.23702L129.34376,430.51709L130.54361,429.79716L131.98343,429.07723
				L133.18328,428.35731L134.38313,427.63738L117.8252,412.75886L117.8252,411.319L117.8252,409.87915L117.34527,408.43929L116.62536,407.23941
				L116.38539,405.79955L116.14542,404.3597L115.90545,402.91984L115.42551,401.71996L114.94557,400.2801L114.94557,398.84025L114.7056,397.40039
				L115.18554,396.20051L116.14542,395.00063L117.34527,394.52068L118.30514,393.56077L119.26502,392.36089L119.50499,391.16101
				L119.50499,389.72116L119.74496,388.2813L120.2249,387.08142L120.94481,385.88154L120.94481,384.44168L120.94481,383.00183L120.2249,381.80195
				L119.02505,380.84204L118.30514,379.64216L117.8252,378.44228L117.58523,377.00242L117.58523,375.56257L117.8252,374.12271L117.8252,372.68285
				L118.06517,371.243L118.06517,370.04312L118.06517,368.60326L117.8252,367.1634L116.86533,365.96352L116.14542,364.76364L115.42551,363.56376
				L114.94557,362.36388L114.22566,361.164L113.50575,359.72415L112.78584,358.52427L112.3059,357.32439L111.82596,355.88453L112.06593,354.44467
				L112.54587,353.24479L113.26578,352.04491L113.50575,350.60506L113.50575,349.1652L113.74572,347.72534L113.74572,346.28549L
				113.74572,344.84563L114.22566,343.64575L115.18554,342.68584L116.14542,341.48596L116.62536,340.28608L116.86533,338.84623L
				117.1053,337.40637L117.1053,335.96651L117.34527,334.52666L117.8252,333.32678L118.30514,332.1269L119.02505,330.68704L119.50499,329.48716
				L119.98493,328.0473L119.98493,326.60745L119.98493,325.16759L119.74496,323.96771L119.74496,322.52785L119.98493,321.088L120.46487,319.64814
				L120.70484,318.44826L121.18478,317.0084L122.14466,316.0485L123.10454,314.84862L123.82445,313.64874L124.30439,312.20888L125.0243,311.009
				L125.98418,310.28907L126.94406,309.08919L127.66397,307.88931L128.38388,306.68943L129.8237,306.20948L130.54361,305.0096L131.26352,303.80972
				L131.98343,302.60984L132.94331,301.64993L134.14316,302.12989L135.10304,303.32977L135.82294,304.52965L136.54285,305.72953
				L137.26276,306.92941L138.46261,307.64934L139.90243,308.12929L141.10228,307.88931L142.5421,307.16938L143.74195,306.44946L
				144.9418,305.72953L146.14165,305.24958L147.58147,304.76962L148.78132,304.0497L149.7412,303.08979L150.70108,302.12989L151.66096,301.16998
				L152.62084,301.88991L153.58071,303.08979L154.30062,304.28967L155.50047,305.24958L156.70032,305.72953L158.14014,305.48955
				L159.57996,305.24958L161.01978,305.48955L162.21963,305.9695L163.65945,306.20948L165.09927,305.48955L166.05915,304.76962L
				166.77906,303.56974L167.73894,302.36986L168.93879,301.88991L169.6587,303.08979L170.61858,304.0497L171.57845,305.0096L173.01827,305.48955
				L174.21812,305.0096L175.178,304.0497L176.37785,303.32977L177.81767,302.84981L179.25749,302.84981L180.21737,303.80972L180.21737,305.24958
				L180.21737,306.68943L181.41722,307.40936"/>
			<path clip-path="url(#SVG_CP_1)" fill="none" stroke="#6E6E6E" stroke-width="0.47994" stroke-miterlimit="10" stroke-linecap="round" stroke-linejoin="round" d="
				M181.41722,307.40936L182.85704,307.16938L184.05689,306.44946L185.25674,305.72953L186.21662,304.52965L187.1765,303.56974L
				188.13638,302.60984L189.33623,301.64993L190.53607,301.40996L191.73592,301.88991L192.6958,303.08979L193.65568,304.0497L194.85553,304.76962
				L196.05538,304.0497L197.25523,303.08979L198.45508,302.36986L199.65493,301.88991L201.09475,301.64993L202.53457,301.64993L
				203.73442,300.93001L205.17424,300.45005L206.13412,299.49015L207.57393,299.0102L209.25372,298.77022L209.01375,297.33037L208.05387,296.37046
				L206.61406,296.37046L205.41421,295.89051L204.93427,294.45065L204.6943,293.0108L204.6943,291.81092L204.45433,290.37106L203.01451,289.41115
				L203.73442,288.21127L204.45433,287.01139L205.17424,285.81151L204.93427,284.61163L204.93427,283.17178L204.93427,281.73192
				L204.6943,280.29206L204.45433,278.85221L204.21436,277.41235L203.97439,276.21247L203.73442,274.77261L203.49445,273.33276L
				203.25448,271.8929L203.01451,270.45304L202.77454,269.25316L202.53457,267.81331L202.53457,266.37345L201.57469,265.41355L200.61481,264.45364
				L201.09475,263.01379L201.81466,261.8139L201.57469,260.37405L200.85478,259.41414L199.65493,258.69422L198.21511,258.45424L
				196.77529,257.97429L195.81541,257.01438L195.0955,255.8145L194.61556,254.37465L193.89565,253.17477L192.93577,252.21486L191.49595,251.97489
				L190.2961,251.49493L188.85629,251.25496L187.65644,250.53503L187.1765,249.33515L186.45659,248.13527L185.49671,246.93539L184.29686,246.21546
				L183.33698,245.49553L182.61707,244.29565L181.41722,243.33575L180.21737,242.37584L218.37258,194.14065L218.61255,192.70079
				L218.61255,191.26094L219.09249,189.82108L219.09249,188.38122L219.33246,187.18134L218.61255,185.98146L217.89264,184.54161
				L217.17273,183.34173L216.45282,182.14185L215.97288,180.94197L215.25297,179.50211L214.53306,178.30223L214.05312,177.10235
				L213.57318,175.66249L213.09324,174.46261L212.6133,173.02275L212.13336,171.82287L211.65342,170.38302L211.41345,169.18314L
				211.17348,167.74328L210.93351,166.30342L210.93351,164.86357L210.45357,163.66369L209.49369,162.46381L208.77378,161.26393L
				208.29384,160.06405L208.29384,158.62419L208.29384,157.18433L208.29384,155.74448L208.05387,154.30462L208.05387,152.86476L
				207.8139,151.66488L207.33396,150.22503L206.85403,149.02515L206.13412,147.82527L204.93427,146.86536L203.49445,146.62539L202.2946,146.14543
				L201.09475,145.42551L200.85478,143.98565L201.57469,142.78577L202.05463,141.34591L202.77454,140.14603L203.49445,138.94615
				L203.97439,137.74627L204.6943,136.30641L205.17424,135.10653L205.65418,133.66668L205.89415,132.4668L205.65418,131.02694L205.41421,129.58708
				L204.6943,128.3872L203.97439,127.18732L203.25448,125.98744L202.77454,124.54759L201.81466,123.58768L200.85478,122.62778L199.8949,121.4279
				L198.69505,120.46799L197.73517,119.50809L196.77529,118.54818L195.81541,117.58828L194.61556,116.62838L193.89565,115.66847
				L193.17574,114.22862L192.6958,113.02873L191.73592,111.82885L190.53607,111.3489L190.05613,109.90905L189.81616,108.46919L189.57619,107.26931
				L188.85629,106.06943L187.65644,105.10952L186.21662,104.62957L185.01677,104.14962L183.81692,103.42969L182.61707,102.70976
				L181.41722,101.98983L179.9774,100.31L201.33472,96.23041L202.77454,94.79055L202.77454,93.3507L203.01451,92.15082L203.25448,90.71096
				L203.25448,89.2711L203.49445,87.83125L203.49445,86.39139L203.49445,84.95153L203.49445,83.51168L203.49445,82.07182L203.49445,80.87194
				L203.49445,79.43208L203.25448,77.99223L203.01451,76.55237L202.53457,75.11251L202.2946,73.91263L201.81466,72.47278L201.09475,71.2729
				L200.37484,70.07302L199.8949,68.63316L199.65493,67.43328L199.17499,65.99342L198.93502,64.55357L199.17499,63.11371L199.17499,61.67385
				L199.17499,60.234L199.65493,59.03412L199.65493,57.59426L231.33095,58.31419L232.5308,58.79414L233.97062,58.79414L235.17047,59.27409
				L236.61029,60.234L238.05011,60.71395L239.48993,61.1939L240.68978,61.91383L242.36957,62.39378L243.56941,62.63376L244.52929,63.59366
				L246.20908,63.35369L247.6489,62.87373L248.84875,62.39378L250.0486,61.67385L251.24845,60.71395L252.20833,59.99402L253.40818,58.79414
				L254.12809,57.83424L255.32794,56.39438L256.04785,55.43448L257.2477,54.23459L257.96761,53.27469L258.68752,52.07481L259.6474,51.11491
				L269.9661,44.63555L271.16595,59.99402L309.8011,110.389L317.7201,88.79115L318.20004,87.59127L318.44001,85.67146L318.91995,84.2316
				L319.39989,83.03172L319.63986,81.83184L320.1198,80.39199L320.35977,78.71216L320.59974,77.2723L320.83971,75.59247L321.31965,74.15261
				L322.5195,72.71275L324.19929,72.47278L325.39914,71.99282L326.83896,71.75285L328.27878,71.2729L329.95857,70.79294L331.39839,70.31299
				L333.07817,70.07302L334.27802,69.83304L335.71784,70.07302L336.91769,70.79294L338.35751,70.79294L340.0373,70.07302L340.99718,69.35309
				L342.67697,68.39318L343.87682,67.43328L346.51649,65.99342L347.95631,65.03352L348.91619,64.55357L350.11604,63.59366L351.07591,62.87373
				L352.27576,62.39378L353.71558,61.67385L355.87531,60.71395L357.07516,59.99402L358.27501,60.47397L358.75495,61.91383L359.9548,62.63376
				L363.31438,60.95393L364.99417,60.47397L366.19402,59.75404L367.63384,59.03412L368.83369,58.79414L369.55359,57.59426L370.2735,56.63436
				L371.23338,55.1945L372.6732,54.47457L374.11302,53.75464L375.31287,53.03471L376.51272,52.55476L377.71257,52.07481L379.15239,51.11491
				L380.83218,50.63495L382.03203,49.91503L382.99191,48.47517L384.43173,48.23519L385.63158,48.23519L386.83142,47.99522L388.27124,47.51526
				L389.95103,47.03531L391.39085,46.31538L392.5907,45.83543L392.83067,44.63555L392.83067,42.95572L392.35073,41.51586L392.35073,40.07601
				L392.83067,38.63615L393.79055,37.67625L395.95028,36.47636L396.19025,38.1562L403.14938,45.59546L401.46959,45.83543L400.26974,46.31538
				L398.82992,46.55536L397.3901,47.03531L396.43022,47.99522L395.47034,48.95512L394.9904,50.155L394.27049,51.59486L394.03052,53.03471
				L394.03052,54.23459L393.79055,55.67445L393.55058,57.11431L393.55058,58.55416L393.79055,59.99402L394.03052,61.43388"/>
		</g>
		<g id="Other">
			<clipPath id="SVG_CP_2">
				<path d="M0,611.93901L0,0L791.90056,0L791.90056,611.93901L0,611.93901z"/>
			</clipPath>
			<path clip-path="url(#SVG_CP_2)" fill="none" stroke="#000000" stroke-width="0.95988" stroke-miterlimit="10" stroke-linecap="round" stroke-linejoin="round" d="
				M3.11961,611.45906L3.11961,2.63974L787.82107,2.63974L787.82107,611.45906L3.11961,611.45906z"/>
		</g>
	</g>
</svg>
